<svg xmlns="http://www.w3.org/2000/svg" xmlns:xlink="http://www.w3.org/1999/xlink" width="47" height="44.927" viewBox="0 0 47 44.927"><defs><clipPath id="a"><rect width="47" height="44.927" fill="#cde4d5"/></clipPath></defs><g clip-path="url(#a)"><path d="M93.3,85.092H78.286V82.8H93.3a4.017,4.017,0,0,0,3.479-6.026l-7.507-13,1.987-1.147,7.507,13A6.312,6.312,0,0,1,93.3,85.092" transform="translate(-52.622 -42.093)" fill="#cde4d5"/><path d="M56.192,17.307l-7.507-13a4.017,4.017,0,0,0-6.958,0l-7.507,13-1.988-1.147,7.507-13a6.312,6.312,0,0,1,10.933,0l7.507,13Z" transform="translate(-21.666 -0.001)" fill="#cde4d5"/><path d="M21.336,85.029H6.322A6.312,6.312,0,0,1,.856,75.562l7.507-13,1.987,1.147-7.507,13a4.017,4.017,0,0,0,3.479,6.026H21.336Z" transform="translate(0 -42.051)" fill="#cde4d5"/><path d="M112.052,59.321l2.681,1.546,2.681,1.546-2.68,1.549-2.679,1.549,0-3.1Z" transform="translate(-75.319 -39.874)" fill="#cde4d5"/><path d="M60.631,121.291l-2.69,1.531-2.69,1.531.019-3.1.019-3.1,2.671,1.564Z" transform="translate(-37.139 -79.426)" fill="#cde4d5"/><path d="M31.993,43.181l.162-3.091L32.316,37l2.6,1.685,2.6,1.685-2.758,1.405Z" transform="translate(-21.505 -24.87)" fill="#cde4d5"/><path d="M43.482,77.162a3.972,3.972,0,0,1,3.53,1.989l-1.238.873a2.608,2.608,0,0,0-2.293-1.346,2.633,2.633,0,0,0,0,5.265A2.608,2.608,0,0,0,45.775,82.6l1.238.873a3.936,3.936,0,0,1-3.542,1.99,4.15,4.15,0,1,1,.012-8.3" transform="translate(-26.357 -51.866)" fill="#cde4d5"/><path d="M69.914,77.162a4.15,4.15,0,1,1-4.246,4.148,4.189,4.189,0,0,1,4.246-4.148m.012,1.516A2.633,2.633,0,1,0,72.5,81.31a2.514,2.514,0,0,0-2.572-2.632" transform="translate(-44.14 -51.866)" fill="#cde4d5"/><path d="M98.066,94.832v1.092l-3.8.012v-.255l1.808-1.965c.437-.5.63-.8.63-1.177a.578.578,0,0,0-.582-.643.589.589,0,0,0-.594.667c0,.036.012.158.024.352h-1.2a1.614,1.614,0,0,1-.049-.425,1.761,1.761,0,0,1,1.832-1.711,1.861,1.861,0,0,1,1.3.473,1.488,1.488,0,0,1,.522,1.177,2.885,2.885,0,0,1-1.1,1.989l-.388.412Z" transform="translate(-63.365 -61.02)" fill="#cde4d5"/><path d="M66.747,41.867a.237.237,0,0,0-.43-.018,2.611,2.611,0,0,1-2.282,1.332H62.817A2.923,2.923,0,0,0,59.894,46.1a3,3,0,0,0,.023.312,7.285,7.285,0,0,1,4.362-1.286.244.244,0,1,1,0,.487c-3.827,0-5.45,2.346-5.809,3.228a.488.488,0,0,0,.9.37,4,4,0,0,1,1.095-1.379A2.916,2.916,0,0,0,63.13,49.01c2.39-.173,4.073-2.317,4.073-4.942a5.54,5.54,0,0,0-.455-2.2" transform="translate(-39.277 -28.043)" fill="#cde4d5"/></g></svg>