<svg xmlns="http://www.w3.org/2000/svg" xmlns:xlink="http://www.w3.org/1999/xlink" width="57.837" height="55.602" viewBox="0 0 57.837 55.602"><defs><clipPath id="a"><rect width="57.837" height="55.602" fill="#cde4d5"/></clipPath></defs><g clip-path="url(#a)"><path d="M21.867,55.6a6.1,6.1,0,0,1-4.229-1.7l-4.205-4.023a3.325,3.325,0,0,0-.724-.526L7.583,46.593a6.1,6.1,0,0,1-3.131-4.309L3.415,36.558a3.326,3.326,0,0,0-.276-.852L.612,30.463a6.1,6.1,0,0,1,0-5.326l2.527-5.243a3.323,3.323,0,0,0,.276-.852l1.037-5.727A6.1,6.1,0,0,1,7.583,9.008l5.126-2.756a3.331,3.331,0,0,0,.725-.527l4.2-4.023A6.107,6.107,0,0,1,22.7.056l5.767.784a3.347,3.347,0,0,0,.9,0L35.134.056A6.106,6.106,0,0,1,40.2,1.7L44.4,5.725a3.325,3.325,0,0,0,.724.526l5.125,2.756a6.1,6.1,0,0,1,3.131,4.309l1.037,5.727a3.315,3.315,0,0,0,.276.851l2.527,5.243a6.105,6.105,0,0,1,0,5.326L54.7,35.706a3.3,3.3,0,0,0-.277.852l-1.037,5.726a6.1,6.1,0,0,1-3.131,4.309l-5.125,2.756a3.318,3.318,0,0,0-.724.526L40.2,53.9a6.1,6.1,0,0,1-5.065,1.646l-5.767-.783a3.348,3.348,0,0,0-.9,0l-5.767.783a6.2,6.2,0,0,1-.836.057m7.051-3.677a6.12,6.12,0,0,1,.826.056l5.767.783a3.305,3.305,0,0,0,2.747-.892l4.205-4.024a6.135,6.135,0,0,1,1.336-.97l5.126-2.756a3.31,3.31,0,0,0,1.7-2.337l1.037-5.727a6.143,6.143,0,0,1,.51-1.57L54.7,29.245a3.308,3.308,0,0,0,0-2.889L52.17,21.113a6.16,6.16,0,0,1-.51-1.57l-1.037-5.727a3.31,3.31,0,0,0-1.7-2.337L43.8,8.724a6.14,6.14,0,0,1-1.336-.97l-4.2-4.023a3.309,3.309,0,0,0-2.747-.893l-5.767.783a6.1,6.1,0,0,1-1.651,0l-5.767-.783a3.312,3.312,0,0,0-2.747.893L15.374,7.753a6.148,6.148,0,0,1-1.336.971L8.912,11.48a3.311,3.311,0,0,0-1.7,2.337L6.177,19.544a6.164,6.164,0,0,1-.51,1.569L3.141,26.356a3.308,3.308,0,0,0,0,2.889l2.527,5.243a6.174,6.174,0,0,1,.51,1.57l1.037,5.727a3.31,3.31,0,0,0,1.7,2.337l5.126,2.756a6.134,6.134,0,0,1,1.335.97l4.206,4.024a3.307,3.307,0,0,0,2.747.892l5.767-.783a6.118,6.118,0,0,1,.825-.056" transform="translate(0 0)" fill="#cde4d5"/><path d="M36.8,90.628l-.431,1.563.344.436,1.027-.81.469.595L35.3,94.706l-.863-1.092a1.218,1.218,0,0,1,.11-1.789,1.145,1.145,0,0,1,1.231-.143l.491-1.725Zm-.611,2.413-.393-.5a.531.531,0,1,0-.832.657l.393.5Z" transform="translate(-20.426 -53.886)" fill="#cde4d5"/><path d="M33.238,86.474a.734.734,0,0,0,.138-.944,1.253,1.253,0,0,0-.6-.564l.319-.514a1.7,1.7,0,0,1,.873.8,1.456,1.456,0,0,1-.61,2.014,1.433,1.433,0,0,1-1.954-.64,1.265,1.265,0,0,1,.561-1.75,1.783,1.783,0,0,1,.393-.142Zm-1.047-.885a.566.566,0,0,0-.23.79.686.686,0,0,0,.8.337Z" transform="translate(-18.719 -50.587)" fill="#cde4d5"/><path d="M30.682,80.358a1.075,1.075,0,0,0,.134-.855c-.059-.193-.178-.316-.323-.272-.113.034-.133.123-.159.347l-.031.32c-.051.549-.2.852-.591.971-.5.151-.915-.156-1.091-.736a1.292,1.292,0,0,1,.107-1.076l.557.23a.89.89,0,0,0-.071.672c.054.177.151.265.275.227.1-.03.129-.115.151-.351l.03-.29c.053-.579.192-.873.584-.992a.769.769,0,0,1,.712.107,1.221,1.221,0,0,1,.45.672,1.4,1.4,0,0,1-.182,1.258Z" transform="translate(-17.102 -47.029)" fill="#cde4d5"/><path d="M29.878,71.3a1.107,1.107,0,0,1-.244.863l1.273-.14.082.753-3.768.414-.076-.692.346-.038a1.056,1.056,0,0,1-.5-.843,1.459,1.459,0,0,1,2.892-.318m-2.2.383a.77.77,0,0,0,1.524-.168.768.768,0,0,0-1.524.168" transform="translate(-16.16 -41.998)" fill="#cde4d5"/><path d="M28.625,63.955a.732.732,0,0,0,.62-.725,1.249,1.249,0,0,0-.207-.8l.543-.265a1.7,1.7,0,0,1,.31,1.145A1.456,1.456,0,0,1,28.3,64.692,1.433,1.433,0,0,1,26.99,63.11,1.265,1.265,0,0,1,28.4,61.928a1.779,1.779,0,0,1,.409.089Zm-.413-1.307a.565.565,0,0,0-.615.546.684.684,0,0,0,.5.711Z" transform="translate(-16.162 -37.091)" fill="#cde4d5"/><path d="M28.631,54.673a1.33,1.33,0,0,1,.994-.968l.246.622a.783.783,0,0,0-.574.529.761.761,0,0,0,1.461.424.791.791,0,0,0-.2-.753l.535-.394a1.338,1.338,0,0,1,.327,1.351,1.454,1.454,0,1,1-2.793-.81" transform="translate(-17.113 -32.17)" fill="#cde4d5"/><path d="M33.017,48.611a2.155,2.155,0,0,1-.164.5.971.971,0,0,1-1.422.552l-1.047-.5-.19.395-.577-.276.189-.395-.633-.3L29.5,47.9l.633.3.34-.709.577.276-.34.709.987.473c.284.136.458.045.613-.279.02-.041.065-.149.135-.334Z" transform="translate(-17.475 -28.448)" fill="#cde4d5"/><path d="M37.151,34.188l3.163,2.781-.46.523-.257-.227a1.057,1.057,0,0,1-.282.941,1.459,1.459,0,0,1-2.185-1.921,1.074,1.074,0,0,1,.8-.405l-1.278-1.124Zm.587,2.445a.768.768,0,0,0,1.151,1.013.693.693,0,0,0-.109-1.031.7.7,0,0,0-1.041.019" transform="translate(-21.954 -20.479)" fill="#cde4d5"/><path d="M44.8,33.916a.733.733,0,0,0,.954-.02,1.252,1.252,0,0,0,.456-.686l.559.229a1.7,1.7,0,0,1-.647.994,1.455,1.455,0,0,1-2.086-.267,1.432,1.432,0,0,1,.306-2.032,1.264,1.264,0,0,1,1.819.262,1.855,1.855,0,0,1,.206.364Zm.7-1.178a.564.564,0,0,0-.816-.1.682.682,0,0,0-.2.844Z" transform="translate(-26.201 -19.085)" fill="#cde4d5"/><path d="M51.071,30.231a1.071,1.071,0,0,0,.866-.022c.18-.092.279-.231.21-.366-.054-.1-.145-.109-.37-.094l-.321.026c-.549.049-.875-.043-1.061-.407-.239-.464-.011-.929.529-1.206A1.29,1.29,0,0,1,52,28.074l-.127.589a.891.891,0,0,0-.674.05c-.165.085-.234.2-.175.31.048.1.137.107.372.087l.292-.023c.579-.051.894.033,1.081.4a.771.771,0,0,1,.023.72,1.229,1.229,0,0,1-.582.564,1.4,1.4,0,0,1-1.27.047Z" transform="translate(-30.13 -16.769)" fill="#cde4d5"/><path d="M62.258,26.19a2.153,2.153,0,0,1-.493.185.969.969,0,0,1-1.32-.762l-.266-1.131-.425.1-.146-.623.425-.1-.16-.683L60.61,23l.16.683.765-.179.146.623-.765.18.251,1.065c.072.306.251.385.6.3.044-.01.157-.043.345-.1Z" transform="translate(-35.705 -13.779)" fill="#cde4d5"/><path d="M68.393,24.173l-.2.019a.671.671,0,0,0-.676.791l.13,1.38-.754.071-.261-2.766.694-.065.031.33a.965.965,0,0,1,.726-.435.822.822,0,0,1,.249.011Z" transform="translate(-39.912 -14.072)" fill="#cde4d5"/><path d="M74.316,26.4l-.695-.043.016-.269a1.155,1.155,0,0,1-.866.285.851.851,0,0,1-.908-.887c.031-.5.453-.782,1.1-.743l.695.042.008-.123a.454.454,0,0,0-.486-.519.948.948,0,0,0-.757.336l-.363-.489a1.514,1.514,0,0,1,1.245-.5,1.092,1.092,0,0,1,1.116,1.26Zm-.691-1.116-.594-.036c-.247-.015-.392.072-.4.257s.138.312.38.327a.553.553,0,0,0,.616-.514Z" transform="translate(-43.046 -14.067)" fill="#cde4d5"/><path d="M83.326,22.25l-1.079,4.069-.673-.178.088-.331a1.057,1.057,0,0,1-.968.167,1.458,1.458,0,0,1,.745-2.81,1.074,1.074,0,0,1,.718.533l.437-1.644ZM81.4,23.865a.767.767,0,0,0-.393,1.48.692.692,0,0,0,.874-.557.7.7,0,0,0-.481-.923" transform="translate(-47.745 -13.212)" fill="#cde4d5"/><path d="M88.538,25.16l.695.3L88.12,28.009l-.695-.3Zm.938-1.207a.469.469,0,1,1-.375.859.469.469,0,1,1,.375-.859" transform="translate(-52.368 -14.322)" fill="#cde4d5"/><path d="M92.809,31.322a2.179,2.179,0,0,1-.485-.206.97.97,0,0,1-.433-1.463l.586-1-.378-.221.323-.553.379.221.354-.606.655.383-.354.606.679.4-.323.553-.679-.4-.552.946c-.159.272-.083.453.228.634.039.023.144.077.321.162Z" transform="translate(-54.936 -16.467)" fill="#cde4d5"/><path d="M96.96,30.592l.605.455-1.67,2.22-.605-.456Zm1.191-.958a.469.469,0,1,1-.563.749.469.469,0,1,1,.563-.749" transform="translate(-57.079 -17.69)" fill="#cde4d5"/><path d="M101.691,36.437a1.451,1.451,0,1,1-2.075-.046,1.466,1.466,0,0,1,2.075.046m-.492.484a.758.758,0,1,0-.041,1.047.727.727,0,0,0,.041-1.047" transform="translate(-59.411 -21.552)" fill="#cde4d5"/><path d="M104.987,45.466l-.409-.632,1.361-.883a.5.5,0,0,0,.172-.727.511.511,0,0,0-.74-.149l-1.361.883-.413-.636,2.332-1.513.379.584-.212.138a1.137,1.137,0,0,1,.707.511,1.011,1.011,0,0,1-.369,1.484Z" transform="translate(-62.055 -25.044)" fill="#cde4d5"/><path d="M108.788,50.586a1.072,1.072,0,0,0-.044.865c.078.186.209.3.349.237.108-.046.12-.136.122-.362V51c-.007-.551.109-.868.486-1.027.481-.2.926.061,1.162.619a1.3,1.3,0,0,1,.006,1.082l-.578-.171a.893.893,0,0,0,0-.676c-.072-.17-.178-.248-.3-.2-.1.042-.117.129-.114.365l0,.292c.007.581-.1.889-.479,1.048a.773.773,0,0,1-.72-.032,1.223,1.223,0,0,1-.518-.622,1.4,1.4,0,0,1,.05-1.269Z" transform="translate(-64.715 -29.896)" fill="#cde4d5"/><rect width="4.212" height="0.758" transform="translate(44.41 24.637) rotate(-10.299)" fill="#cde4d5"/><path d="M114.269,65.756a1.452,1.452,0,1,1-1.493-1.445,1.466,1.466,0,0,1,1.493,1.445m-.691.02a.759.759,0,1,0-.742.742.728.728,0,0,0,.742-.742" transform="translate(-66.708 -38.522)" fill="#cde4d5"/><path d="M113.618,74.7a1.33,1.33,0,0,1-.874,1.078l-.318-.588a.784.784,0,0,0,.508-.593.761.761,0,0,0-1.5-.249.792.792,0,0,0,.284.724l-.486.454a1.342,1.342,0,0,1-.483-1.3,1.454,1.454,0,1,1,2.869.478" transform="translate(-66.327 -43.712)" fill="#cde4d5"/><path d="M108.155,82.268l.239-.654.253.093a1.157,1.157,0,0,1-.024-.912.851.851,0,0,1,1.11-.616c.469.172.62.658.4,1.264l-.24.654.116.043a.455.455,0,0,0,.636-.317.949.949,0,0,0-.105-.822l.573-.209a1.516,1.516,0,0,1,.12,1.336,1.092,1.092,0,0,1-1.527.707Zm1.268-.342.2-.559c.085-.232.043-.4-.13-.46s-.339.044-.422.27a.552.552,0,0,0,.316.737Z" transform="translate(-64.786 -47.996)" fill="#cde4d5"/><rect width="0.757" height="4.209" transform="translate(42.719 35.469) rotate(-61.997)" fill="#cde4d5"/><path d="M104.626,91.6a.734.734,0,0,0-.905.3,1.254,1.254,0,0,0-.231.79l-.6-.052a1.7,1.7,0,0,1,.322-1.142,1.456,1.456,0,0,1,2.072-.367,1.432,1.432,0,0,1,.313,2.032,1.263,1.263,0,0,1-1.814.292,1.8,1.8,0,0,1-.306-.286Zm-.316,1.334a.566.566,0,0,0,.808-.152.686.686,0,0,0-.061-.867Z" transform="translate(-61.628 -54.419)" fill="#cde4d5"/><path d="M100.121,96.786a1.074,1.074,0,0,0-.824.267c-.146.14-.2.3-.1.411.081.085.17.063.382-.016l.3-.116c.513-.2.851-.208,1.134.088a.878.878,0,0,1-.163,1.307,1.292,1.292,0,0,1-1.009.391l-.047-.6a.893.893,0,0,0,.633-.24c.134-.128.168-.255.079-.348-.074-.077-.162-.063-.382.023l-.272.105c-.541.215-.867.223-1.15-.073a.772.772,0,0,1-.228-.684,1.226,1.226,0,0,1,.4-.706,1.4,1.4,0,0,1,1.2-.407Z" transform="translate(-58.983 -57.608)" fill="#cde4d5"/><path d="M62.68,55.744a2.44,2.44,0,0,0-1.728,4.166l.934.934A38.405,38.405,0,0,0,63.9,56.077a2.354,2.354,0,0,0-1.223-.333m-1.728.714a2.447,2.447,0,0,0,0,3.453l.934.934A38.405,38.405,0,0,0,63.9,56.077a2.354,2.354,0,0,0-1.223-.333,2.426,2.426,0,0,0-1.728.714M59.769,44.9a5.5,5.5,0,0,0-5.5,5.5c0,3.04,3.89,13.028,5.5,13.028.505,0,1.195-.886,1.921-2.213l-1.019-1.023a2.839,2.839,0,0,1,2.009-4.848,2.773,2.773,0,0,1,1.355.349A20.262,20.262,0,0,0,65.274,50.4a5.5,5.5,0,0,0-5.506-5.5m0,7.9a2.4,2.4,0,1,1,2.406-2.4,2.4,2.4,0,0,1-2.406,2.4" transform="translate(-32.506 -26.894)" fill="#cde4d5"/><path d="M77.772,74.385a2.426,2.426,0,0,1-.714,1.728l-3.593,3.593-3.593-3.593A2.44,2.44,0,0,1,71.6,71.947a2.354,2.354,0,0,1,1.223.333,2.269,2.269,0,0,1,.5.381l.14.144.14-.144a2.44,2.44,0,0,1,4.166,1.724" transform="translate(-41.427 -43.097)" fill="#cde4d5"/><path d="M46.267,108.167l-.719-1.617-1.74-.324,1.315-1.183-.229-1.755,1.532.885,1.6-.76-.369,1.731,1.217,1.285-1.76.184Z" transform="translate(-26.242 -61.871)" fill="#cde4d5"/><path d="M67.122,113.046l-.719-1.617-1.74-.324,1.315-1.183-.229-1.755,1.532.885,1.6-.76-.369,1.731,1.217,1.285-1.76.184Z" transform="translate(-38.734 -64.793)" fill="#cde4d5"/><path d="M86.781,109.608l-.719-1.617-1.74-.324,1.315-1.183-.229-1.755,1.532.885,1.6-.76-.369,1.73,1.217,1.285-1.76.184Z" transform="translate(-50.51 -62.734)" fill="#cde4d5"/></g></svg>