<svg xmlns="http://www.w3.org/2000/svg" xmlns:xlink="http://www.w3.org/1999/xlink" width="77.21" height="37.333" viewBox="0 0 77.21 37.333"><defs><clipPath id="a"><rect width="77.21" height="37.333" fill="#cde4d5"/></clipPath></defs><g transform="translate(0 0)" clip-path="url(#a)"><path d="M57.606,67.914l-1.25-.267.576-2.7a.852.852,0,0,0-.668-1.079.867.867,0,0,0-1.068.708l-.576,2.7-1.26-.269.986-4.619,1.157.247-.09.42a1.931,1.931,0,0,1,1.464-.234,1.718,1.718,0,0,1,1.339,2.227Z" transform="translate(-32.995 -38.577)" fill="#cde4d5"/><path d="M73.868,66.085l-.593,4.687-1.193-.151.069-.549a1.83,1.83,0,0,1-1.571.475,2.479,2.479,0,0,1,.621-4.9,1.822,1.822,0,0,1,1.418.882l.074-.587Zm-2.576.742a1.306,1.306,0,0,0-.327,2.585,1.178,1.178,0,0,0,1.347-1.138,1.191,1.191,0,0,0-1.019-1.447" transform="translate(-42.414 -40.576)" fill="#cde4d5"/><path d="M87.482,70.039a3.667,3.667,0,0,1-.893.061,1.649,1.649,0,0,1-1.78-1.884l.118-1.972-.743-.044.065-1.086.743.044.071-1.19,1.286.077-.072,1.191,1.333.08L87.547,66.4l-1.333-.08L86.1,68.179c-.032.533.223.75.832.786.076,0,.277.007.612,0Z" transform="translate(-52.054 -39.553)" fill="#cde4d5"/><path d="M95.707,67.609l1.288,0,0,2.748a.888.888,0,1,0,1.775,0l0-2.748,1.288,0,0,2.643a2.176,2.176,0,1,1-4.351.007Z" transform="translate(-59.178 -41.799)" fill="#cde4d5"/><path d="M113.186,68.011l-.343.022a1.14,1.14,0,0,0-1.187,1.311l.153,2.351-1.285.084-.306-4.713,1.181-.076.036.561a1.64,1.64,0,0,1,1.255-.7,1.4,1.4,0,0,1,.423.03Z" transform="translate(-68.151 -41.332)" fill="#cde4d5"/><path d="M120.954,68.772a1.247,1.247,0,0,0,1.437.754,2.127,2.127,0,0,0,1.243-.645l.644.8a2.888,2.888,0,0,1-1.781.947,2.476,2.476,0,0,1-2.886-2.113,2.436,2.436,0,0,1,2.128-2.772,2.149,2.149,0,0,1,2.49,1.886,3.028,3.028,0,0,1,.007.711Zm2.01-1.179a.961.961,0,0,0-1.136-.813,1.163,1.163,0,0,0-.992,1.093Z" transform="translate(-73.942 -40.637)" fill="#cde4d5"/><rect width="1.288" height="7.156" transform="translate(50.476 22.326) rotate(-11.273)" fill="#cde4d5"/><path d="M46.107,23.8V34.132H43.995V26.307l-1.956.626-.5-1.862L45.4,23.8Z" transform="translate(-25.684 -14.718)" fill="#cde4d5"/><path d="M60.584,24.767a3.538,3.538,0,0,1,3.051-1.455,3.491,3.491,0,0,1,3.036,1.455,6.34,6.34,0,0,1,1.048,3.818c0,3.051-1.377,5.43-4.084,5.43-2.723,0-4.1-2.379-4.1-5.43a6.34,6.34,0,0,1,1.048-3.818m3.051.5c-1.33,0-1.925,1.142-1.925,3.333,0,2.3.642,3.458,1.925,3.458,1.268,0,1.909-1.158,1.909-3.458,0-2.191-.595-3.333-1.909-3.333" transform="translate(-36.813 -14.414)" fill="#cde4d5"/><path d="M86.619,24.767a3.538,3.538,0,0,1,3.051-1.455,3.491,3.491,0,0,1,3.036,1.455,6.34,6.34,0,0,1,1.048,3.818c0,3.051-1.377,5.43-4.084,5.43-2.723,0-4.1-2.379-4.1-5.43a6.34,6.34,0,0,1,1.048-3.818m3.051.5c-1.33,0-1.925,1.142-1.925,3.333,0,2.3.642,3.458,1.925,3.458,1.268,0,1.909-1.158,1.909-3.458,0-2.191-.595-3.333-1.909-3.333" transform="translate(-52.911 -14.414)" fill="#cde4d5"/><path d="M125.762,23.312a2.576,2.576,0,1,1-2.676,2.566,2.6,2.6,0,0,1,2.676-2.566m.016,1.455a1.037,1.037,0,0,0-1.049,1.111,1.025,1.025,0,0,0,1.049,1.127,1.124,1.124,0,0,0,0-2.238m5.289-1.268h1.706l-5.946,10.328h-1.69Zm1.064,5.352a2.576,2.576,0,1,1-2.66,2.566,2.613,2.613,0,0,1,2.66-2.566m.016,1.455a1.113,1.113,0,0,0,0,2.222,1.115,1.115,0,0,0,0-2.222" transform="translate(-76.107 -14.414)" fill="#cde4d5"/><path d="M168.3,41.172a.276.276,0,0,0-.5-.021,3.04,3.04,0,0,1-2.657,1.55h-1.418a3.4,3.4,0,0,0-3.4,3.4,3.492,3.492,0,0,0,.027.363,8.481,8.481,0,0,1,5.078-1.5.284.284,0,0,1,0,.567c-4.456,0-6.346,2.732-6.764,3.758a.568.568,0,0,0,1.051.431,4.662,4.662,0,0,1,1.274-1.606,3.394,3.394,0,0,0,3.1,1.368c2.783-.2,4.742-2.7,4.742-5.753a6.45,6.45,0,0,0-.53-2.563" transform="translate(-98.077 -25.352)" fill="#cde4d5"/><path d="M38.6,37.333c-21.647,0-38.6-8.2-38.6-18.667S16.957,0,38.6,0s38.6,8.2,38.6,18.666S60.252,37.333,38.6,37.333m0-34.662C19.127,2.672,2.672,10,2.672,18.666s16.455,16,35.933,16,35.933-7.325,35.933-16S58.082,2.672,38.6,2.672" transform="translate(0 0)" fill="#cde4d5"/></g></svg>