<svg xmlns="http://www.w3.org/2000/svg" width="244.002" height="228.554" viewBox="0 0 244.002 228.554"><g transform="translate(0 0)"><path d="M132.461,64.5A57.936,57.936,0,0,0,82.85,92.565a10.505,10.505,0,0,0,7.3,0,51.743,51.743,0,0,1,84.36-.35,9.172,9.172,0,0,1,3.862-.743,9.059,9.059,0,0,1,3.364.55A57.925,57.925,0,0,0,132.461,64.5Z" transform="translate(-10.46 -8.143)" fill="#fff"/><g transform="translate(51.169 24.019)"><path d="M79.888,65.187l-4.648-4-6.509,7.558,2.787,2.4,3.74-4.343,1.284,1.11a6.5,6.5,0,0,1-1.616,5.828,6.641,6.641,0,0,1-9.777.716,6.464,6.464,0,0,1-.821-9.506,6.794,6.794,0,0,1,6.081-2.4l.087-3.906a10.388,10.388,0,0,0-9.113,3.7,10.761,10.761,0,1,0,16.3,14.032,11.209,11.209,0,0,0,2.656-5.443,11.043,11.043,0,0,0-.454-5.741Z" transform="translate(-58.562 -31.416)" fill="#fff"/><path d="M84.757,43.13l-1.2.76,3.495,22.822,3.853-2.446-.472-2.91L97.61,56.8l2.429,1.66,3.853-2.438L84.757,43.13Zm5.059,14.487-1.424-7.409,6.1,4.447-4.675,2.962ZM84.757,43.13l-1.2.76,3.495,22.822,3.853-2.446-.472-2.91L97.61,56.8l2.429,1.66,3.853-2.438L84.757,43.13Zm5.059,14.487-1.424-7.409,6.1,4.447-4.675,2.962Z" transform="translate(-61.718 -29.465)" fill="#fff"/><path d="M123.978,48.854l-7.471-5.741a6.439,6.439,0,0,0,1.809-6.71c-1.145-3.827-4.937-5.522-9.1-4.281l-7.471,2.237,5.933,19.9,4.072-1.215-2.1-7.025,2.979-.891,7.252,5.487,4.29-1.284.3-.087ZM111.99,41.41l-3.4,1.014-1.7-5.7,3.408-1.014a2.977,2.977,0,1,1,1.7,5.7Z" transform="translate(-64.015 -28.024)" fill="#fff"/><path d="M137.305,27.49l-1.415.026-8.729,20.8-.2.481h.4l4.159-.079L132.639,46l8.484-.14,1.214,2.682,4.561-.079Zm-3.25,14.993,2.656-7.051,2.883,6.964Z" transform="translate(-67.198 -27.49)" fill="#fff"/><path d="M169.957,32.61l-3.364,11.935-8.135-15.57-1.337-.376L151.39,48.95l4.089,1.153,3.381-11.988,8.082,15.614,1.363.384,5.732-20.35-4.08-1.153Z" transform="translate(-70.282 -27.63)" fill="#fff"/><path d="M184.079,37.84l-2,3.268,5.653,3.469L178.88,58.993l3.617,2.228L191.348,46.8l5.679,3.495,2.01-3.277L184.079,37.84Z" transform="translate(-73.753 -28.797)" fill="#fff"/><path d="M204.7,52.76,190.81,68.19l3.163,2.84L207.857,55.6Z" transform="translate(-75.259 -30.68)" fill="#fff"/><path d="M219.661,75.463l3.032-2.342L214.174,62.06,197.73,74.721l8.755,11.359,3.041-2.342-6.16-7.995,4.159-3.207,4.351,5.662,2.866-2.211-4.351-5.653,3.338-2.569Z" transform="translate(-76.133 -31.855)" fill="#fff"/></g><g transform="translate(52.316 153.115)"><path d="M81.374,194.112a10.4,10.4,0,0,0-2.621-9.48,10.761,10.761,0,1,0-15.815,14.583,11.205,11.205,0,0,0,5.094,3.259,11.054,11.054,0,0,0,5.758.21l4.509-4.159-6.754-7.331-2.709,2.49,3.879,4.211-1.249,1.153a6.571,6.571,0,0,1-5.609-2.28,6.645,6.645,0,0,1,.428-9.795,6.469,6.469,0,0,1,9.541.271A6.832,6.832,0,0,1,77.5,193.57l3.871.542Z" transform="translate(-59.876 -175.955)" fill="#fff"/><path d="M94.979,198.49l-18.9,13.263,3.9,2.359,2.4-1.7,7.261,4.4-.411,2.918,3.9,2.368,3.067-22.875Zm-4.8,14.574-4.727-2.875,6-4.561Z" transform="translate(-61.922 -178.175)" fill="#fff"/><path d="M121.106,215.981c1.1-3.836-1.18-7.3-5.356-8.5l-7.5-2.149-5.723,19.956,4.089,1.171,2.018-7.042,2.988.856,3.154,8.528,4.6,1.311-3.408-9.445a6.432,6.432,0,0,0,5.138-4.683Zm-4.176-1.2a2.849,2.849,0,0,1-3.844,2.01l-3.416-.979L111.3,210.1l3.416.979a2.869,2.869,0,0,1,2.211,3.7Z" transform="translate(-65.261 -179.039)" fill="#fff"/><path d="M137.705,210.4l-1.415-.018-9.62,20.987,4.561.07,1.206-2.682,8.493.131,1.118,2.726,4.561.07-8.9-21.284Zm-3.731,14.889,2.875-6.972,2.656,7.06-5.531-.087Z" transform="translate(-68.309 -179.677)" fill="#fff"/><path d="M173.424,225.822l-5.522-20.4-4.1,1.11,3.242,11.962-14.967-9.183-1.328.367,5.513,20.4,4.1-1.11-3.25-12.023,14.95,9.244,1.363-.367Z" transform="translate(-71.349 -179.05)" fill="#fff"/><path d="M182.7,201.505l5.758-3.373-1.94-3.3L171.38,203.7l1.94,3.311,5.723-3.355,8.554,14.6,3.67-2.149-8.563-14.6Z" transform="translate(-73.954 -177.713)" fill="#fff"/><path d="M192.964,190.11l-3.224,2.752,13.482,15.789,3.224-2.761-13.482-15.78Z" transform="translate(-76.272 -177.117)" fill="#fff"/><path d="M218.736,185.725l-6.422,7.785-4.054-3.346,4.543-5.5-2.787-2.307-4.543,5.513-3.25-2.691,6.186-7.488-2.953-2.446L196.56,186l16.007,13.22,9.131-11.062Z" transform="translate(-77.133 -175.24)" fill="#fff"/></g><path d="M169.109,129.55l-3.539,8.965h7.077Zm0,0-3.539,8.965h7.077Zm0,0-3.539,8.965h7.077Zm0,0-3.539,8.965h7.077Zm0,0-3.539,8.965h7.077Zm0,0-3.539,8.965h7.077Zm0,0-3.539,8.965h7.077Zm0,0-3.539,8.965h7.077Zm0,0-3.539,8.965h7.077Zm0,0-3.539,8.965h7.077Zm0,0-3.539,8.965h7.077Zm0,0-3.539,8.965h7.077Zm0,0-3.539,8.965h7.077Zm0,0-3.539,8.965h7.077Zm0,0-3.539,8.965h7.077Zm0,0-3.539,8.965h7.077Zm0,0-3.539,8.965h7.077Zm0,0-3.539,8.965h7.077Zm0,0-3.539,8.965h7.077Zm0,0-3.539,8.965h7.077Zm0,0-3.539,8.965h7.077Zm0,0-3.539,8.965h7.077Zm0,0-3.539,8.965h7.077Zm0,0-3.539,8.965h7.077Zm0,0-3.539,8.965h7.077Zm0,0-3.539,8.965h7.077Zm0,0-3.539,8.965h7.077Z" transform="translate(-20.904 -16.356)" fill="#fff"/><path d="M244,165.228c0-1.127-1.747-1.127-1.747-2.254a.763.763,0,0,1,.061-.323,9.771,9.771,0,0,1-3.539-.891,10.161,10.161,0,0,0-6.9-.428c-.393.131-.751.28-1.118.428a9.815,9.815,0,0,1-4.351.909c-.218,0-.419-.009-.612-.017a9.547,9.547,0,0,1-3.74-.891,8.913,8.913,0,0,0-4-.839,9.029,9.029,0,0,0-4.019.839,10.83,10.83,0,0,1-8.685,0,10.007,10.007,0,0,0-8.021,0,10.851,10.851,0,0,1-8.694,0,9.986,9.986,0,0,0-8.012,0,9.741,9.741,0,0,1-4.343.909,9.37,9.37,0,0,1-3.346-.524c-.358-.114-.682-.253-1-.384a8.956,8.956,0,0,0-4.01-.839,10.527,10.527,0,0,0-1.363.079,9.019,9.019,0,0,0-2.647.76,10.831,10.831,0,0,1-8.685,0,10.007,10.007,0,0,0-8.021,0,10.852,10.852,0,0,1-8.694,0,9.986,9.986,0,0,0-8.012,0,10.852,10.852,0,0,1-8.694,0,9.986,9.986,0,0,0-8.012,0,10.831,10.831,0,0,1-8.685,0,10.007,10.007,0,0,0-8.021,0,10.831,10.831,0,0,1-8.685,0,9.986,9.986,0,0,0-8.012,0,11.277,11.277,0,0,1-2.036.69,11.036,11.036,0,0,1-2.307.218,9.816,9.816,0,0,1-4.351-.909c-.341-.14-.664-.28-1.031-.4h-.009a8.755,8.755,0,0,0-2.962-.437,8.986,8.986,0,0,0-4.01.839,9.7,9.7,0,0,1-4.334.909,9.816,9.816,0,0,1-4.351-.909,9.986,9.986,0,0,0-8.012,0,9.741,9.741,0,0,1-4.343.909,9.816,9.816,0,0,1-4.351-.909,8.913,8.913,0,0,0-4-.839,8.956,8.956,0,0,0-4.01.839,9.741,9.741,0,0,1-4.343.909,9.741,9.741,0,0,1-4.343-.909,8.857,8.857,0,0,0-3.355-.821c-.2-.009-.419-.017-.655-.017a8.956,8.956,0,0,0-4.01.839,11.005,11.005,0,0,1-1.468.533h0a9.5,9.5,0,0,1-2.875.376,9.741,9.741,0,0,1-4.343-.909,8.87,8.87,0,0,0-3.154-.8c-.192.935-1.73,1-1.73,2.045,0,1.127,1.747,1.127,1.747,2.254S0,166.372,0,167.5s.017,1.11,1.1,1.4c4.037,1.092,3.958,1.721,8.135,1.721a9.218,9.218,0,0,0,3.871-.743,21.018,21.018,0,0,0,2.149,3.294,12.622,12.622,0,0,1,1.7,2.647,12.927,12.927,0,0,1,.568,3.137,15.724,15.724,0,0,0,1.241,5.356,15.7,15.7,0,0,0,3.443,4.325,12.937,12.937,0,0,1,2.08,2.377,12.685,12.685,0,0,1,1.022,3.006,16.008,16.008,0,0,0,2.027,5.12,15.659,15.659,0,0,0,4.045,3.757,12.57,12.57,0,0,1,2.412,2.045,12.368,12.368,0,0,1,1.459,2.813,15.89,15.89,0,0,0,2.77,4.762,15.639,15.639,0,0,0,4.552,3.119,12.65,12.65,0,0,1,2.691,1.66,12.772,12.772,0,0,1,1.861,2.569,15.931,15.931,0,0,0,3.443,4.308,15.928,15.928,0,0,0,4.963,2.4,13.125,13.125,0,0,1,2.918,1.241,13.251,13.251,0,0,1,2.211,2.254,15.745,15.745,0,0,0,4.054,3.757,15.69,15.69,0,0,0,5.251,1.634,13.15,13.15,0,0,1,3.076.8,12.31,12.31,0,0,1,2.516,1.9,16.062,16.062,0,0,0,4.578,3.111,15.89,15.89,0,0,0,5.443.83,12.869,12.869,0,0,1,3.163.332,13,13,0,0,1,2.77,1.485,15.711,15.711,0,0,0,5,2.394,15.845,15.845,0,0,0,5.487.009,12.84,12.84,0,0,1,3.189-.157,12.735,12.735,0,0,1,2.953,1.066,15.85,15.85,0,0,0,5.3,1.616c.236.017.472.026.7.026a17.62,17.62,0,0,0,4.718-.839,13.18,13.18,0,0,1,3.145-.62,13.18,13.18,0,0,1,3.145.62,15.678,15.678,0,0,0,5.417.813,15.913,15.913,0,0,0,5.3-1.616,12.735,12.735,0,0,1,2.953-1.066,12.757,12.757,0,0,1,3.18.157,15.9,15.9,0,0,0,5.5-.009,15.887,15.887,0,0,0,5-2.385,12.5,12.5,0,0,1,2.77-1.494,12.87,12.87,0,0,1,3.163-.332,15.89,15.89,0,0,0,5.443-.83,15.72,15.72,0,0,0,4.57-3.111,8.154,8.154,0,0,1,5.592-2.691,12.539,12.539,0,0,0,9.314-5.391,8.068,8.068,0,0,1,5.129-3.5,12.526,12.526,0,0,0,8.405-6.71,12.766,12.766,0,0,1,1.852-2.569,13.24,13.24,0,0,1,2.7-1.66,16.013,16.013,0,0,0,4.552-3.111,15.815,15.815,0,0,0,2.761-4.771,13.109,13.109,0,0,1,1.459-2.813,12.927,12.927,0,0,1,2.42-2.045,12.551,12.551,0,0,0,6.073-8.877,12.685,12.685,0,0,1,1.022-3.006,12.913,12.913,0,0,1,2.08-2.368,12.5,12.5,0,0,0,4.683-9.69,8.2,8.2,0,0,1,2.263-5.784,19.326,19.326,0,0,0,2.3-3.609,9.107,9.107,0,0,1,3.731-.69c4.176,0,4.543,2.8,8.58,1.713,1.092-.288-.647-1.232-1.075-2.875-.288-1.092,1.721-1.354,1.721-2.481ZM84.439,168.871c4.176,0,4.176,1.748,8.353,1.748s4.177-1.748,8.353-1.748,4.176,1.748,8.353,1.748,4.176-1.748,8.353-1.748,4.176,1.748,8.353,1.748,4.177-1.748,8.353-1.748,4.176,1.748,8.353,1.748,4.176-1.748,8.353-1.748,4.168,1.625,7.925,1.739a51.695,51.695,0,0,1-75.937-1.686c.358-.035.751-.052,1.188-.052Zm136.916,4.718a17.471,17.471,0,0,0-.952,4.727,11.366,11.366,0,0,1-.664,3.338,11.276,11.276,0,0,1-2.219,2.621,17.578,17.578,0,0,0-3.093,3.678,18.032,18.032,0,0,0-1.651,4.526,6.8,6.8,0,0,1-3.74,5.461,18.033,18.033,0,0,0-3.609,3.18,17.68,17.68,0,0,0-2.3,4.229,6.828,6.828,0,0,1-4.509,4.849,17.949,17.949,0,0,0-4.045,2.613,17.506,17.506,0,0,0-2.9,3.844,11.3,11.3,0,0,1-2.053,2.735,11.09,11.09,0,0,1-3.119,1.389,18.2,18.2,0,0,0-4.395,1.983,17.96,17.96,0,0,0-3.434,3.364,10.983,10.983,0,0,1-2.438,2.4,11.186,11.186,0,0,1-3.294.917,17.784,17.784,0,0,0-4.64,1.3,17.505,17.505,0,0,0-3.888,2.813,11.307,11.307,0,0,1-2.779,2.01,10.841,10.841,0,0,1-3.381.411,17.757,17.757,0,0,0-4.788.6,17.155,17.155,0,0,0-4.264,2.184,10.969,10.969,0,0,1-3.058,1.573,10.82,10.82,0,0,1-3.4-.1,13.784,13.784,0,0,0-9.367,1.389,11.108,11.108,0,0,1-3.268,1.11,10.994,10.994,0,0,1-3.329-.6A17.609,17.609,0,0,0,122,241.3a17.609,17.609,0,0,0-4.779.848,10.994,10.994,0,0,1-3.329.6,11.108,11.108,0,0,1-3.268-1.11,17.737,17.737,0,0,0-4.535-1.52,17.638,17.638,0,0,0-4.832.131,10.82,10.82,0,0,1-3.4.1,10.969,10.969,0,0,1-3.058-1.573,17.309,17.309,0,0,0-4.264-2.184,17.757,17.757,0,0,0-4.788-.6,10.806,10.806,0,0,1-3.381-.411,10.833,10.833,0,0,1-2.779-2.018,17.826,17.826,0,0,0-3.9-2.8,17.784,17.784,0,0,0-4.64-1.3,11.2,11.2,0,0,1-3.285-.917,10.983,10.983,0,0,1-2.438-2.4,17.767,17.767,0,0,0-3.443-3.364A17.816,17.816,0,0,0,57.5,220.78a11.09,11.09,0,0,1-3.119-1.389,11.2,11.2,0,0,1-2.053-2.744,18.029,18.029,0,0,0-2.9-3.836,18.144,18.144,0,0,0-4.045-2.613,10.808,10.808,0,0,1-2.883-1.844,11.256,11.256,0,0,1-1.625-3.006,17.421,17.421,0,0,0-2.307-4.229,17.567,17.567,0,0,0-3.609-3.18,10.92,10.92,0,0,1-2.578-2.254,11.025,11.025,0,0,1-1.153-3.215,18.033,18.033,0,0,0-1.651-4.526,17.746,17.746,0,0,0-3.093-3.67,11.238,11.238,0,0,1-2.219-2.621,11.147,11.147,0,0,1-.664-3.338,17.472,17.472,0,0,0-.952-4.727A17.388,17.388,0,0,0,20.14,169.5c-.1-.14-.2-.271-.3-.411,2.132.472,2.857,1.529,6.107,1.529,4.185,0,4.185-1.748,8.362-1.748s4.176,1.748,8.353,1.748,4.177-1.748,8.353-1.748,4.176,1.748,8.353,1.748,4.176-1.748,8.353-1.748,4.185,1.748,8.362,1.748c.2,0,.4,0,.585-.018A57.832,57.832,0,0,0,122,192.515a58.964,58.964,0,0,0,46.641-23.626h.009c3.5.183,3.731,1.73,7.663,1.73,4.177,0,4.177-1.748,8.344-1.748s4.176,1.748,8.353,1.748,4.176-1.748,8.353-1.748,4.176,1.748,8.353,1.748,4.176-1.748,8.353-1.748c2.8,0,3.722.786,5.286,1.3a15.343,15.343,0,0,0-2,3.416Z" transform="translate(0 -20.317)" fill="#fff"/><path d="M242.254,88.694c0-1.118,1.747-1.118,1.747-2.246s-.017-1.11-1.1-1.4c-4.037-1.092-3.958-1.721-8.135-1.721a9.664,9.664,0,0,0-2.8.358,11.356,11.356,0,0,0-.463-3.189,15.992,15.992,0,0,0-2.761-4.8,12.44,12.44,0,0,1-1.7-2.656,12.37,12.37,0,0,1-.568-3.128,15.77,15.77,0,0,0-1.241-5.365,15.831,15.831,0,0,0-3.443-4.325,12.913,12.913,0,0,1-2.08-2.368,12.686,12.686,0,0,1-1.022-3.006,16.007,16.007,0,0,0-2.027-5.12,15.66,15.66,0,0,0-4.045-3.757,12.57,12.57,0,0,1-2.412-2.045,12.368,12.368,0,0,1-1.459-2.813,16.035,16.035,0,0,0-2.77-4.771,15.775,15.775,0,0,0-4.552-3.111,13.014,13.014,0,0,1-2.691-1.66,12.773,12.773,0,0,1-1.861-2.569,15.931,15.931,0,0,0-3.443-4.308,15.737,15.737,0,0,0-4.963-2.4,13.125,13.125,0,0,1-2.918-1.241,13.017,13.017,0,0,1-2.211-2.263,15.862,15.862,0,0,0-4.054-3.748,15.917,15.917,0,0,0-5.251-1.643,12.756,12.756,0,0,1-3.076-.8,12.925,12.925,0,0,1-2.525-1.9,15.72,15.72,0,0,0-4.57-3.111,15.89,15.89,0,0,0-5.443-.83,12.871,12.871,0,0,1-3.163-.332,12.691,12.691,0,0,1-2.77-1.494,15.887,15.887,0,0,0-5-2.385,15.9,15.9,0,0,0-5.5-.009,12.713,12.713,0,0,1-3.18.149,12.282,12.282,0,0,1-2.953-1.057,15.912,15.912,0,0,0-5.3-1.616,15.505,15.505,0,0,0-5.417.813,13.18,13.18,0,0,1-3.145.62,13.18,13.18,0,0,1-3.145-.62,15.505,15.505,0,0,0-5.417-.813,15.849,15.849,0,0,0-5.3,1.616A12.282,12.282,0,0,1,105.181,2.7,12.311,12.311,0,0,1,102,2.551a15.9,15.9,0,0,0-5.5.009,15.887,15.887,0,0,0-5,2.385,12.691,12.691,0,0,1-2.77,1.494,12.871,12.871,0,0,1-3.163.332,15.89,15.89,0,0,0-5.443.83,15.72,15.72,0,0,0-4.57,3.111,12.925,12.925,0,0,1-2.525,1.9,12.678,12.678,0,0,1-3.067.8,15.9,15.9,0,0,0-5.26,1.643,15.862,15.862,0,0,0-4.054,3.748,12.345,12.345,0,0,1-2.211,2.254A12.553,12.553,0,0,1,55.526,22.3a15.827,15.827,0,0,0-4.963,2.4,15.932,15.932,0,0,0-3.443,4.308,12.765,12.765,0,0,1-1.852,2.569,13.239,13.239,0,0,1-2.7,1.66,15.893,15.893,0,0,0-4.552,3.111,15.609,15.609,0,0,0-2.761,4.771A13.111,13.111,0,0,1,33.8,43.932a12.592,12.592,0,0,1-2.42,2.036,15.825,15.825,0,0,0-4.037,3.766,15.759,15.759,0,0,0-2.036,5.12,12.685,12.685,0,0,1-1.022,3.006,12.912,12.912,0,0,1-2.08,2.368,15.832,15.832,0,0,0-3.443,4.325,15.77,15.77,0,0,0-1.241,5.365,12.371,12.371,0,0,1-.568,3.128,12.658,12.658,0,0,1-1.7,2.656,15.885,15.885,0,0,0-2.761,4.8,12.887,12.887,0,0,0-.463,4.211,9.352,9.352,0,0,1-2.8.367c-4.177,0-4.552-2.8-8.58-1.713-1.092.288,1.1,1.966,1.1,3.093S0,87.584,0,88.72s1.747,1.127,1.747,2.246a.749.749,0,0,1-.061.315,9.767,9.767,0,0,1,3.53.891,8.986,8.986,0,0,0,4.01.839c.358,0,.69-.017.987-.044a8.775,8.775,0,0,0,3.023-.8,9.622,9.622,0,0,1,4.343-.909h.166a9.554,9.554,0,0,1,4.177.909,8.957,8.957,0,0,0,4.01.839,8.914,8.914,0,0,0,4-.839,9.815,9.815,0,0,1,4.351-.909,9.622,9.622,0,0,1,4.343.909,8.957,8.957,0,0,0,4.01.839,8.914,8.914,0,0,0,4-.839,10.851,10.851,0,0,1,8.694,0,9.986,9.986,0,0,0,8.012,0,9.741,9.741,0,0,1,4.343-.909c.419,0,.8.017,1.145.044a9.561,9.561,0,0,1,3.2.865,8.843,8.843,0,0,0,2.761.778c.367.035.786.061,1.249.061a8.914,8.914,0,0,0,4-.839,10.851,10.851,0,0,1,8.694,0,9.986,9.986,0,0,0,8.012,0,9.622,9.622,0,0,1,4.343-.909,9.741,9.741,0,0,1,4.343.909,9.986,9.986,0,0,0,8.012,0,10.851,10.851,0,0,1,8.694,0,9.986,9.986,0,0,0,8.012,0,10.851,10.851,0,0,1,8.694,0,10.007,10.007,0,0,0,8.021,0,9.622,9.622,0,0,1,4.343-.909,9.741,9.741,0,0,1,4.343.909,10.007,10.007,0,0,0,8.021,0,9.741,9.741,0,0,1,4.343-.909c.175,0,.332,0,.489.009a9.445,9.445,0,0,1,3.862.9,8.8,8.8,0,0,0,3.6.83c.131.009.271.009.411.009a8.914,8.914,0,0,0,4-.839,10.851,10.851,0,0,1,8.694,0,9.986,9.986,0,0,0,8.012,0,10.851,10.851,0,0,1,8.694,0,10.007,10.007,0,0,0,8.021,0,10.851,10.851,0,0,1,8.694,0,8.957,8.957,0,0,0,4.011.839c.183,0,.349,0,.515-.009a8.711,8.711,0,0,0,3.495-.83,9.783,9.783,0,0,1,2.534-.778,10.99,10.99,0,0,1,1.817-.131,9.694,9.694,0,0,1,4.351.909,9.042,9.042,0,0,0,3.154.813c.2-.926,1.73-.987,1.73-2.036,0-1.127-1.747-1.127-1.747-2.254Zm-16.418-3.635c-3.617-.149-3.81-1.73-7.785-1.73-4.185,0-4.185,1.747-8.362,1.747s-4.176-1.747-8.353-1.747-4.176,1.747-8.353,1.747-4.176-1.747-8.353-1.747-4.176,1.747-8.362,1.747a10.994,10.994,0,0,1-4.98-1.2h-.009a9.058,9.058,0,0,0-3.364-.55,9.172,9.172,0,0,0-3.862.743,9.725,9.725,0,0,1-4.491,1c-4.176,0-4.176-1.747-8.353-1.747s-4.176,1.747-8.353,1.747-4.177-1.747-8.353-1.747-4.176,1.747-8.353,1.747-4.176-1.747-8.353-1.747-4.176,1.747-8.353,1.747-4.177-1.747-8.353-1.747-4.176,1.747-8.353,1.747-4.176-1.747-8.353-1.747a10.162,10.162,0,0,0-4.692,1.092,10.505,10.505,0,0,1-7.3,0,10.173,10.173,0,0,0-4.7-1.092c-4.176,0-4.176,1.747-8.353,1.747s-4.168-1.747-8.344-1.747-4.176,1.747-8.353,1.747-4.177-1.747-8.353-1.747-4.176,1.747-8.353,1.747-4.168-1.581-7.768-1.73A4.605,4.605,0,0,1,18.34,82.3a11.306,11.306,0,0,1,1.809-2.927,17.662,17.662,0,0,0,2.5-4.089,17.471,17.471,0,0,0,.952-4.727,11.209,11.209,0,0,1,.664-3.346A11.041,11.041,0,0,1,26.483,64.6a17.578,17.578,0,0,0,3.093-3.678,18.033,18.033,0,0,0,1.651-4.526,11.218,11.218,0,0,1,1.153-3.215,11.588,11.588,0,0,1,2.586-2.254,17.707,17.707,0,0,0,3.609-3.172,17.847,17.847,0,0,0,2.3-4.229A11.12,11.12,0,0,1,42.5,40.516a11.337,11.337,0,0,1,2.883-1.852,17.792,17.792,0,0,0,4.045-2.6,17.506,17.506,0,0,0,2.9-3.844,10.966,10.966,0,0,1,2.053-2.735,11.338,11.338,0,0,1,3.119-1.4A17.549,17.549,0,0,0,61.9,26.1a17.927,17.927,0,0,0,3.434-3.355,10.983,10.983,0,0,1,2.438-2.4,11.185,11.185,0,0,1,3.294-.917,17.483,17.483,0,0,0,4.64-1.311,17.481,17.481,0,0,0,3.888-2.8,11.146,11.146,0,0,1,2.779-2.01,10.841,10.841,0,0,1,3.381-.411,17.757,17.757,0,0,0,4.788-.6A17.453,17.453,0,0,0,94.8,10.1a11.021,11.021,0,0,1,3.058-1.581,11.114,11.114,0,0,1,3.4.1,17.627,17.627,0,0,0,4.832.131,17.411,17.411,0,0,0,4.535-1.529,11.322,11.322,0,0,1,3.268-1.1,10.731,10.731,0,0,1,3.329.6A17.609,17.609,0,0,0,122,7.575a17.609,17.609,0,0,0,4.779-.848,10.731,10.731,0,0,1,3.329-.6,11.322,11.322,0,0,1,3.268,1.1,17.411,17.411,0,0,0,4.535,1.529,17.627,17.627,0,0,0,4.832-.131,11.119,11.119,0,0,1,3.4-.1A11.021,11.021,0,0,1,149.2,10.1a17.613,17.613,0,0,0,4.264,2.184,17.756,17.756,0,0,0,4.788.6,10.841,10.841,0,0,1,3.381.411,11.146,11.146,0,0,1,2.779,2.01,17.267,17.267,0,0,0,3.9,2.8,17.483,17.483,0,0,0,4.64,1.311,11.2,11.2,0,0,1,3.285.917,10.983,10.983,0,0,1,2.438,2.4,18.022,18.022,0,0,0,3.443,3.364,18.145,18.145,0,0,0,4.386,1.983,11.091,11.091,0,0,1,3.119,1.389,11.2,11.2,0,0,1,2.053,2.744,18.25,18.25,0,0,0,2.9,3.836,18.145,18.145,0,0,0,4.045,2.612,10.809,10.809,0,0,1,2.883,1.844,11.256,11.256,0,0,1,1.625,3.006,17.422,17.422,0,0,0,2.307,4.229,17.566,17.566,0,0,0,3.609,3.18,11.285,11.285,0,0,1,2.578,2.254,11.057,11.057,0,0,1,1.153,3.207,18.032,18.032,0,0,0,1.651,4.526,17.578,17.578,0,0,0,3.093,3.678,11.064,11.064,0,0,1,2.219,2.621,11.089,11.089,0,0,1,.664,3.338,17.471,17.471,0,0,0,.952,4.727,17.388,17.388,0,0,0,2.508,4.089,11.492,11.492,0,0,1,1.8,2.927,8.79,8.79,0,0,1,.175,2.761Z" transform="translate(0 0)" fill="#fff"/><path d="M244,113.245c0-1.127-1.747-1.127-1.747-2.246S244,109.872,244,108.745c0-.839-.97-1.048-1.468-1.573h-.009a9.514,9.514,0,0,1-3.748-.891,8.838,8.838,0,0,0-4.01-.839,10.714,10.714,0,0,0-1.381.079,8.638,8.638,0,0,0-2.63.76,9.762,9.762,0,0,1-3.416.882c-.288.017-.594.026-.935.026a9.815,9.815,0,0,1-4.351-.909,8.8,8.8,0,0,0-4-.839,8.91,8.91,0,0,0-4.019.839,10.83,10.83,0,0,1-8.685,0,10.007,10.007,0,0,0-8.021,0,10.851,10.851,0,0,1-8.694,0,9.986,9.986,0,0,0-8.012,0,9.741,9.741,0,0,1-4.343.909h-.07a9.772,9.772,0,0,1-4.281-.909,8.6,8.6,0,0,0-3.084-.8c-.28-.026-.585-.035-.926-.035a8.867,8.867,0,0,0-4.01.839,10.83,10.83,0,0,1-8.685,0,10.007,10.007,0,0,0-8.021,0,10.851,10.851,0,0,1-8.694,0,9.986,9.986,0,0,0-8.012,0,10.851,10.851,0,0,1-8.694,0,9.986,9.986,0,0,0-8.012,0,10.83,10.83,0,0,1-8.685,0,10.007,10.007,0,0,0-8.021,0,10.83,10.83,0,0,1-8.685,0,9.986,9.986,0,0,0-8.012,0,9.741,9.741,0,0,1-4.343.909,10.861,10.861,0,0,1-1.608-.1,9.794,9.794,0,0,1-2.744-.8,8.547,8.547,0,0,0-3.215-.813q-.367-.026-.786-.026a8.867,8.867,0,0,0-4.01.839,9.7,9.7,0,0,1-4.334.909,9.815,9.815,0,0,1-4.351-.909,9.986,9.986,0,0,0-8.012,0,9.741,9.741,0,0,1-4.343.909,9.815,9.815,0,0,1-4.351-.909,8.8,8.8,0,0,0-4-.839,8.839,8.839,0,0,0-4.01.839,9.741,9.741,0,0,1-4.343.909,9.741,9.741,0,0,1-4.343-.909,8.839,8.839,0,0,0-4.01-.839h-.14c-.131,0-.245.009-.358.009a.242.242,0,0,0-.079.009c-.14,0-.262.009-.384.017a.269.269,0,0,0-.087.009l-.28.026a7.524,7.524,0,0,0-1.381.28.009.009,0,0,0-.009.009,7.412,7.412,0,0,0-.848.3l-.017.009s-.044.017-.07.026l-.017.009s-.044.017-.07.026l-.052.026a2.274,2.274,0,0,0-.218.087c-.14.061-.271.114-.411.166a.31.31,0,0,1-.079.035c-.1.044-.218.087-.332.131-.079.026-.166.061-.245.087l-.079.026a1.107,1.107,0,0,0-.157.052c-.149.044-.3.087-.454.122l-.017.009h-.035c-.061.009-.131.026-.2.044a5.639,5.639,0,0,1-.577.1c-.1.017-.21.035-.315.044l-.236.026c-.2.017-.419.035-.655.044H9.768c-.175.009-.349.009-.542.009a9.741,9.741,0,0,1-4.343-.909,8.839,8.839,0,0,0-4.01-.839v-.044c-.437.28-.874.568-.874,1.127,0,1.127,1.747,1.127,1.747,2.254S0,109.9,0,111.026s1.747,1.118,1.747,2.246S0,114.39,0,115.517s1.747,1.127,1.747,2.254S0,118.9,0,120.017s1.747,1.127,1.747,2.254S0,123.4,0,124.516s1.747,1.127,1.747,2.254S0,127.889,0,129.016s1.747,1.127,1.747,2.246S0,132.389,0,133.516s1.747,1.118,1.747,2.246S0,136.88,0,138.007s1.747,1.127,1.747,2.246S0,141.38,0,142.5s1.747,1.118,1.747,2.246S0,145.862,0,146.989s1.747,1.127,1.747,2.246S0,150.362,0,151.489c0,.821.944,1.04,1.442,1.547a9.757,9.757,0,0,1,3.775.9,8.986,8.986,0,0,0,4.01.839,8.989,8.989,0,0,0,2.9-.411l.079-.026c.07-.026.131-.044.2-.07.017-.009.026-.009.044-.017.052-.017.1-.044.149-.061h.017l.052-.026a1.273,1.273,0,0,0,.166-.061h.009c.131-.061.262-.114.393-.166a9.741,9.741,0,0,1,4.343-.909c.14,0,.271,0,.393.009.07,0,.131.009.192.009a.016.016,0,0,1,.026,0,9.456,9.456,0,0,1,3.731.891,8.957,8.957,0,0,0,4.01.839,8.914,8.914,0,0,0,4-.839,9.815,9.815,0,0,1,4.351-.909,9.741,9.741,0,0,1,4.343.909,8.957,8.957,0,0,0,4.01.839,8.914,8.914,0,0,0,4-.839,10.851,10.851,0,0,1,8.694,0,9.986,9.986,0,0,0,8.012,0,9.741,9.741,0,0,1,4.343-.909,10.647,10.647,0,0,1,2.42.245h0a10.932,10.932,0,0,1,1.922.664,8.957,8.957,0,0,0,4.01.839,9.308,9.308,0,0,0,4-.839,10.851,10.851,0,0,1,8.694,0,9.986,9.986,0,0,0,8.012,0,10.83,10.83,0,0,1,8.685,0,9.986,9.986,0,0,0,8.012,0,10.851,10.851,0,0,1,8.694,0,9.986,9.986,0,0,0,8.012,0,10.851,10.851,0,0,1,8.694,0,10.007,10.007,0,0,0,8.021,0,10.83,10.83,0,0,1,8.685,0,10.007,10.007,0,0,0,8.021,0,9.714,9.714,0,0,1,3.521-.891c.253-.009.533-.017.821-.017a9.785,9.785,0,0,1,4.351.909c.35.149.7.288,1.075.411a8.691,8.691,0,0,0,2.936.428,8.914,8.914,0,0,0,4-.839,10.851,10.851,0,0,1,8.694,0,9.986,9.986,0,0,0,8.012,0,10.851,10.851,0,0,1,8.694,0,10.007,10.007,0,0,0,8.021,0,10.851,10.851,0,0,1,8.694,0,8.957,8.957,0,0,0,3.373.821c.2.009.411.017.638.017a8.957,8.957,0,0,0,4.01-.839,11.4,11.4,0,0,1,1.494-.542h0a11.037,11.037,0,0,1,7.208.542,8.957,8.957,0,0,0,4.01.839v.061c.437-.28.874-.559.874-1.127,0-1.127-1.747-1.127-1.747-2.254S244,150.327,244,149.2s-1.747-1.118-1.747-2.246S244,145.827,244,144.709s-1.747-1.127-1.747-2.254S244,141.327,244,140.209s-1.747-1.127-1.747-2.254S244,136.827,244,135.709s-1.747-1.127-1.747-2.254S244,132.336,244,131.209s-1.747-1.127-1.747-2.246S244,127.837,244,126.709s-1.747-1.118-1.747-2.246S244,123.345,244,122.218s-1.747-1.127-1.747-2.246S244,118.846,244,117.727s-1.747-1.118-1.747-2.246S244,114.363,244,113.236Zm-216.759,25.2a7.774,7.774,0,0,1-7.095-3.128,10.66,10.66,0,0,0-2.918,3.67,1.3,1.3,0,0,1-1.7.716,1.274,1.274,0,0,1-.262-.149A1.309,1.309,0,0,1,14.819,138a8.765,8.765,0,0,1,.8-1.477c1.8-2.813,6.221-7.121,14.7-7.121a.645.645,0,0,0,.647-.647.653.653,0,0,0-.647-.655,19.365,19.365,0,0,0-11.63,3.434c-.035-.28-.052-.559-.061-.839a7.788,7.788,0,0,1,7.794-7.785h3.242a6.991,6.991,0,0,0,6.09-3.547.553.553,0,0,1,.315-.3.64.64,0,0,1,.83.341,14.906,14.906,0,0,1,1.215,5.872c0,6.99-4.491,12.7-10.861,13.167Zm44.64,2.28-1.372,3.145H68.7L64.456,134.2l-7.61-17.344H63l1.512,3.67,5.12,12.407.7-1.7,5.9-14.382h6.107l-10.45,23.871Zm32.4,2.665H85.95V116.854h17.842v4.9H91.376v5.391H100.5v4.622H91.376v6.71h12.905v4.91ZM133.7,136.67a13.976,13.976,0,0,1-5.19,5.225,14.211,14.211,0,0,1-7.471,1.975,13.818,13.818,0,0,1-14.19-13.753c-.166-7.637,6.343-13.866,14.19-13.744a13.275,13.275,0,0,1,11.166,5.749l-3.853,3.172a8.7,8.7,0,0,0-7.4-3.9c-5.059,0-8.519,3.661-8.519,8.72A8.542,8.542,0,0,0,121.276,139a8.379,8.379,0,0,0,7-3.294v-2.176h-7.322v-4.7H133.7v7.838Zm21.415,6.719-1.485-3.46H142.779l-1.485,3.46h-5.828l11.857-27.016h1.809l11.822,27.016h-5.837Zm32.04.481h-1.809l-6.239-6.658-5.443-5.81-3.678-3.932v15.92h-5.426V116.373h1.774l7.357,7.8,6.142,6.509,1.9,2.01V116.854h5.426V143.87Zm29.035-4.858a7.789,7.789,0,0,1-7.1-3.128,10.535,10.535,0,0,0-2.91,3.67,1.3,1.3,0,1,1-2.412-.987c.961-2.35,5.286-8.6,15.483-8.6a.653.653,0,0,0,.655-.647.66.66,0,0,0-.655-.655,19.356,19.356,0,0,0-11.621,3.434,6.772,6.772,0,0,1-.061-.839,7.786,7.786,0,0,1,7.785-7.785h3.25a6.977,6.977,0,0,0,6.081-3.547.6.6,0,0,1,.323-.3.627.627,0,0,1,.821.341,14.753,14.753,0,0,1,1.215,5.872c0,6.99-4.482,12.7-10.852,13.167Z" transform="translate(0 -13.306)" fill="#fff"/></g></svg>