<svg xmlns="http://www.w3.org/2000/svg" width="250.536" height="213.206" viewBox="0 0 250.536 213.206"><g transform="translate(0 0)"><g transform="translate(26.129 0)"><path d="M116.762,48.412c-2.73,0-3.948,2.344-3.948,6.834q0,7.081,3.948,7.089c2.632,0,3.907-2.369,3.907-7.089S119.451,48.412,116.762,48.412Zm0,0c-2.73,0-3.948,2.344-3.948,6.834q0,7.081,3.948,7.089c2.632,0,3.907-2.369,3.907-7.089S119.451,48.412,116.762,48.412Zm20.363,0c-2.73,0-3.948,2.344-3.948,6.834q0,7.081,3.948,7.089c2.632,0,3.915-2.369,3.915-7.089S139.822,48.412,137.125,48.412Zm-20.363,0c-2.73,0-3.948,2.344-3.948,6.834q0,7.081,3.948,7.089c2.632,0,3.907-2.369,3.907-7.089S119.451,48.412,116.762,48.412Zm0,0c-2.73,0-3.948,2.344-3.948,6.834q0,7.081,3.948,7.089c2.632,0,3.907-2.369,3.907-7.089S119.451,48.412,116.762,48.412Zm20.363,0c-2.73,0-3.948,2.344-3.948,6.834q0,7.081,3.948,7.089c2.632,0,3.915-2.369,3.915-7.089S139.822,48.412,137.125,48.412Zm-20.363,0c-2.73,0-3.948,2.344-3.948,6.834q0,7.081,3.948,7.089c2.632,0,3.907-2.369,3.907-7.089S119.451,48.412,116.762,48.412Zm37.848-1.02a2.3,2.3,0,1,0,2.081,2.278A2.1,2.1,0,0,0,154.61,47.392Zm-17.485,1.02c-2.73,0-3.948,2.344-3.948,6.834q0,7.081,3.948,7.089c2.632,0,3.915-2.369,3.915-7.089S139.822,48.412,137.125,48.412Zm17.485-1.02a2.3,2.3,0,1,0,2.081,2.278A2.1,2.1,0,0,0,154.61,47.392Zm-17.485,1.02c-2.73,0-3.948,2.344-3.948,6.834q0,7.081,3.948,7.089c2.632,0,3.915-2.369,3.915-7.089S139.822,48.412,137.125,48.412Zm-20.363,0c-2.73,0-3.948,2.344-3.948,6.834q0,7.081,3.948,7.089c2.632,0,3.907-2.369,3.907-7.089S119.451,48.412,116.762,48.412Zm0,0c-2.73,0-3.948,2.344-3.948,6.834q0,7.081,3.948,7.089c2.632,0,3.907-2.369,3.907-7.089S119.451,48.412,116.762,48.412Zm50.9,10.33a2.282,2.282,0,0,0,0,4.556,2.287,2.287,0,0,0,0-4.556ZM156.69,49.67a2.125,2.125,0,1,0-2.081,2.3A2.129,2.129,0,0,0,156.69,49.67Zm-19.565-1.258c-2.73,0-3.948,2.344-3.948,6.834q0,7.081,3.948,7.089c2.632,0,3.915-2.369,3.915-7.089S139.822,48.412,137.125,48.412Zm-20.363,0c-2.73,0-3.948,2.344-3.948,6.834q0,7.081,3.948,7.089c2.632,0,3.907-2.369,3.907-7.089S119.451,48.412,116.762,48.412ZM133.687,19.38A90.667,90.667,0,0,0,49.15,77.262H218.233A90.686,90.686,0,0,0,133.687,19.38ZM103.644,65.962H99.31V49.925L95.3,51.208l-1.02-3.816,7.92-2.6h1.447Zm13.118.387c-5.584,0-8.405-4.877-8.405-11.136a13.009,13.009,0,0,1,2.147-7.821,7.258,7.258,0,0,1,6.259-2.985,7.134,7.134,0,0,1,6.218,2.985,12.954,12.954,0,0,1,2.155,7.821c0,6.259-2.829,11.136-8.372,11.136Zm20.363,0c-5.584,0-8.405-4.877-8.405-11.136a13.009,13.009,0,0,1,2.147-7.821,7.258,7.258,0,0,1,6.259-2.985,7.159,7.159,0,0,1,6.226,2.985,13.009,13.009,0,0,1,2.147,7.821C145.5,61.472,142.676,66.349,137.125,66.349ZM149.091,49.67a5.472,5.472,0,1,1,5.486,5.288A5.335,5.335,0,0,1,149.091,49.67Zm4.2,16.292,12.155-21.169h3.5L156.756,65.962h-3.462Zm14.335.354a5.28,5.28,0,1,1,5.486-5.3A5.354,5.354,0,0,1,167.629,66.316Zm-50.867-17.9c-2.73,0-3.948,2.344-3.948,6.834q0,7.081,3.948,7.089c2.632,0,3.907-2.369,3.907-7.089s-1.217-6.834-3.907-6.834Zm20.363,0c-2.73,0-3.948,2.344-3.948,6.834q0,7.081,3.948,7.089c2.632,0,3.915-2.369,3.915-7.089s-1.217-6.834-3.915-6.834Zm17.485-1.02a2.3,2.3,0,1,0,2.081,2.278A2.1,2.1,0,0,0,154.61,47.392Zm-37.848,1.02c-2.73,0-3.948,2.344-3.948,6.834q0,7.081,3.948,7.089c2.632,0,3.907-2.369,3.907-7.089s-1.217-6.834-3.907-6.834Zm0,0c-2.73,0-3.948,2.344-3.948,6.834q0,7.081,3.948,7.089c2.632,0,3.907-2.369,3.907-7.089s-1.217-6.834-3.907-6.834Zm20.363,0c-2.73,0-3.948,2.344-3.948,6.834q0,7.081,3.948,7.089c2.632,0,3.915-2.369,3.915-7.089s-1.217-6.834-3.915-6.834Zm0,0c-2.73,0-3.948,2.344-3.948,6.834q0,7.081,3.948,7.089c2.632,0,3.915-2.369,3.915-7.089s-1.217-6.834-3.915-6.834Zm17.485-1.02a2.3,2.3,0,1,0,2.081,2.278A2.1,2.1,0,0,0,154.61,47.392Zm-37.848,1.02c-2.73,0-3.948,2.344-3.948,6.834q0,7.081,3.948,7.089c2.632,0,3.907-2.369,3.907-7.089s-1.217-6.834-3.907-6.834Zm20.363,0c-2.73,0-3.948,2.344-3.948,6.834q0,7.081,3.948,7.089c2.632,0,3.915-2.369,3.915-7.089s-1.217-6.834-3.915-6.834Zm-20.363,0c-2.73,0-3.948,2.344-3.948,6.834q0,7.081,3.948,7.089c2.632,0,3.907-2.369,3.907-7.089s-1.217-6.834-3.907-6.834Zm0,0c-2.73,0-3.948,2.344-3.948,6.834q0,7.081,3.948,7.089c2.632,0,3.907-2.369,3.907-7.089s-1.217-6.834-3.907-6.834Z" transform="translate(-34.856 -3.441)" fill="#fff"/><path d="M34.44,73.821l.65-.806-.082-12.682L44.975,52.5,47.73,40.134l11.456-5.428,5.42-11.456L76.984,20.5l7.83-9.968,12.674.074,9.861-7.961L119.693,5.56,131.075,0l11.391,5.56L154.8,2.648l9.861,7.961,12.682-.074,7.829,9.968,12.369,2.747,5.428,11.465,11.456,5.42L217.175,52.5l9.968,7.829-.074,12.682.65.806h-7.673a94.859,94.859,0,0,0-177.94,0H34.44Z" transform="translate(-32.244)" fill="#fff"/><path d="M47.93,166.18a90.684,90.684,0,0,0,171.089,0Zm87.029,42.38a13.881,13.881,0,0,1-12.657-5.584,18.957,18.957,0,0,0-5.2,6.555,2.316,2.316,0,0,1-4.285-1.76c1.7-4.186,9.417-15.33,27.592-15.33a1.16,1.16,0,0,0,0-2.319c-9.441,0-16.1,2.813-20.717,6.111a12.664,12.664,0,0,1-.107-1.48,13.885,13.885,0,0,1,13.883-13.883h5.79a12.413,12.413,0,0,0,10.84-6.324,1.106,1.106,0,0,1,.567-.526,1.125,1.125,0,0,1,1.472.609,26.275,26.275,0,0,1,2.163,10.461c0,12.468-7.994,22.65-19.343,23.472Z" transform="translate(-34.64 -29.509)" fill="#fff"/><path d="M229.44,166.18l-2.846,3.52.074,12.674L216.7,190.2l-2.747,12.378L202.5,208l-5.428,11.456L184.7,222.212l-7.829,9.968-12.682-.082-9.861,7.969-12.336-2.92L130.6,242.715l-11.382-5.568-12.345,2.92L97.013,232.1l-12.674.082-7.83-9.968-12.378-2.755L58.713,208l-11.456-5.42L44.5,190.2l-9.968-7.829.082-12.674-2.846-3.52h8.907a94.853,94.853,0,0,0,179.848,0Z" transform="translate(-31.77 -29.509)" fill="#fff"/><path d="M98.825,132.88H91.3l3.767-9.54Z" transform="translate(-42.341 -21.902)" fill="#fff"/><path d="M196.092,121.072c0,2.434-1.579,4.063-4.277,4.063H186.98V117.05h4.836C194.423,117.05,196.092,118.678,196.092,121.072Z" transform="translate(-59.331 -20.785)" fill="#fff"/></g><g transform="translate(0 77.933)"><path d="M98.825,132.88H91.3l3.767-9.54Z" transform="translate(-16.212 -99.835)" fill="#fff"/><path d="M196.092,121.072c0,2.434-1.579,4.063-4.277,4.063H186.98V117.05h4.836C194.423,117.05,196.092,118.678,196.092,121.072Z" transform="translate(-33.203 -98.718)" fill="#fff"/><path d="M250.536,94.76H0l14.8,27.313L0,149.385H250.536l-14.8-27.313,14.8-27.313Zm-189,41.985H59.609L43.268,119.293v16.934H37.494V107.491h1.883L55.76,124.853V108h5.773Zm24.673-.518-1.579-3.676H73.081l-1.587,3.676h-6.2l12.616-28.736h1.924l12.575,28.736Zm28.061-23H105.2v23H99.423v-23H90.4V108h23.867Zm27.494,11.333c0,7.484-5.132,12.188-11.975,12.188s-11.975-4.7-11.975-12.188V108h5.773v16.983c0,4.1,2.566,6.415,6.2,6.415s6.2-2.311,6.2-6.415V108h5.773Zm23.563,11.67-7.311-9.96h-4.235v9.96H148V108h10.609c5.9,0,10.182,3.676,10.182,9.112a8.724,8.724,0,0,1-4.967,8.035l8,11.078Zm29.558,0H175.374V108h18.99v5.222H181.148v5.724h9.713v4.918h-9.713v7.147h13.735v5.214Zm23.135,0H199.882V108h5.773v23.011h12.361Z" transform="translate(0 -94.76)" fill="#fff"/></g></g></svg>