<svg xmlns="http://www.w3.org/2000/svg" width="265.247" height="220.509" viewBox="0 0 265.247 220.509"><g transform="translate(0 0)"><g transform="translate(0 0)"><g transform="translate(22.377)"><path d="M229.708,112.426a4.063,4.063,0,1,0-4.954-3.039A4,4,0,0,0,229.708,112.426Z" transform="translate(-51.42 -13.495)" fill="#fff"/><path d="M142.35,178.577l-3.065,7.767h6.121Zm0,0-3.065,7.767h6.121Zm-3.065,7.767h6.121l-3.056-7.767ZM29.4,157.14a110.074,110.074,0,0,0,28.272,50.58H215.185a110.073,110.073,0,0,0,28.272-50.58Zm49.317,36.065H63.95V170.227h4.7v18.729H78.717Zm13.827.418A11.912,11.912,0,1,1,104.8,181.712,11.968,11.968,0,0,1,92.544,193.623Zm27.166-4.354a7.483,7.483,0,0,0,6.574-3.866l3.553,2.508a11.3,11.3,0,0,1-10.161,5.712,11.912,11.912,0,1,1,.035-23.814,11.4,11.4,0,0,1,10.126,5.712l-3.553,2.508a7.483,7.483,0,0,0-6.574-3.866,7.555,7.555,0,0,0,0,15.107Zm28.621,3.936-1.289-3h-9.4l-1.289,3h-5.05l10.274-23.4h1.559l10.24,23.4Zm22.952,0H156.525V170.227h4.7v18.729h10.057Zm19.365,0H174.766V170.227H190.23v4.249H179.468v4.667h7.906v4h-7.906v5.816h11.18v4.249Zm11.354.418a10,10,0,0,1-8.873-5.085l3.23-2.438c1.5,2.055,3.135,3.344,5.642,3.344,2.055,0,3.274-.975,3.274-2.542,0-1.358-.731-1.846-2.926-2.856l-2.473-1.115c-3.518-1.567-5.564-3.553-5.564-6.609,0-3.936,3.274-6.513,7.619-6.513a8.268,8.268,0,0,1,7.593,4.354l-3.2,2.473a5.162,5.162,0,0,0-4.388-2.647c-1.637,0-2.856.8-2.856,2.229,0,1.219.731,1.776,2.682,2.647l2.612,1.149c3.866,1.7,5.677,3.613,5.677,6.713C210.048,190.941,206.6,193.623,202,193.623ZM142.35,178.577l-3.065,7.767h6.121Zm0,0-3.065,7.767h6.121Z" transform="translate(-26.178 -20.315)" fill="#fff"/><path d="M195.494,220.23H94.09a96.006,96.006,0,0,0,101.4,0Z" transform="translate(-34.542 -28.472)" fill="#fff"/><path d="M78.4,90.784A1.756,1.756,0,0,0,75.969,91.8l-.879,1.977,3.317,1.48.888-1.977a1.76,1.76,0,0,0-.9-2.5Z" transform="translate(-32.085 -11.714)" fill="#fff"/><path d="M141.3,239.064A99.561,99.561,0,0,1,82.742,220.23H67.06a110.219,110.219,0,0,0,148.475,0H199.853A99.562,99.562,0,0,1,141.3,239.064Z" transform="translate(-31.047 -28.472)" fill="#fff"/><path d="M138.068,16.39a96.061,96.061,0,0,0-93.4,118.2h186.8a96.061,96.061,0,0,0-93.393-118.2Zm11.938,21.568L160.419,40.4l-.531,2.273-3.953-.923-2.351,10.039-2.516-.592,2.342-10.039-3.936-.914.531-2.281ZM137.981,44.81l-1.367-.592c-1.95-.827-3.1-1.907-3.126-3.587-.035-2.168,1.741-3.613,4.136-3.657a4.551,4.551,0,0,1,4.214,2.334L140.1,40.692a2.841,2.841,0,0,0-2.438-1.419c-.9.017-1.559.47-1.55,1.254.017.67.418.975,1.5,1.437l1.454.61c2.142.906,3.152,1.942,3.178,3.648.035,2.316-1.837,3.822-4.362,3.857a5.5,5.5,0,0,1-4.928-2.717l1.759-1.367a3.671,3.671,0,0,0,3.135,1.785c1.123-.017,1.785-.566,1.776-1.428C139.6,45.611,139.2,45.35,137.981,44.81Zm-8.159-7.279.392,2.3-5.834.993.427,2.525,4.293-.723.366,2.168-4.284.731.531,3.152,6.06-1.027.392,2.3-8.611,1.463-2.116-12.46Zm-66.262,63.9,2.325.192-.505,5.9,2.56.218.374-4.336,2.194.192-.374,4.336,3.187.27.522-6.13,2.334.2-.749,8.707-12.6-1.08.731-8.472Zm.061,22.377-.427-4.728c-.235-2.638,1.236-4.693,3.657-4.911a3.934,3.934,0,0,1,3.788,1.889l4.624-4.005.253,2.9-4.145,3.657.165,1.889,4.449-.4.226,2.577ZM77.745,96.775a5.511,5.511,0,0,1-3.918,4.031l-.862-2.055A3.673,3.673,0,0,0,75.516,96.2c.287-1.1-.07-1.881-.906-2.09-.723-.183-1.08.139-1.924,1.167l-.932,1.167c-1.315,1.663-2.656,2.482-4.284,2.064-2.1-.531-3.021-2.63-2.429-4.954A4.547,4.547,0,0,1,68.393,90.1l.888,2.046a2.81,2.81,0,0,0-2.011,1.977c-.226.871.035,1.628.792,1.829.653.165,1.054-.148,1.776-1.071l.975-1.236c1.437-1.829,2.708-2.534,4.354-2.107,2.246.575,3.2,2.778,2.577,5.233Zm1.48-6.008L67.688,85.612l1.933-4.336c1.08-2.412,3.361-3.492,5.59-2.5,2.2.984,2.96,3.422,1.881,5.834L76.2,86.587l4.075,1.82-1.054,2.36Zm4.632-9.822L73.365,73.9,78.1,66.839l1.942,1.3-3.3,4.92,2.133,1.428L81.3,70.871,83.126,72.1l-2.421,3.613L83.361,77.5l3.422-5.111,1.942,1.306ZM93.914,68.424a6.551,6.551,0,1,1-9.352-9.169A6.253,6.253,0,0,1,90.7,57.462l-.374,2.36a4.134,4.134,0,0,0-4.058,1.106,4,4,0,0,0,.139,5.834,3.961,3.961,0,0,0,5.808-.026,4.107,4.107,0,0,0,1.01-4.075l2.351-.427A6.182,6.182,0,0,1,93.914,68.424Zm7.453-6.7L95.49,53.265l-3.326,2.307-1.332-1.916,8.777-6.1,1.341,1.924-3.335,2.316,5.877,8.463Zm14.114-7.68L111.6,55.477l-4.371-11.868,3.883-1.428c3.744-1.419,7.4-.017,8.646,3.509,1.315,3.413-.5,7.027-4.275,8.359Zm18.05,68.325c-4.092,0-13.949-25.312-13.949-33.018a13.949,13.949,0,1,1,27.9,0c0,2.691-1.175,7.54-2.908,12.712a7.772,7.772,0,0,0-3.666-.906,7.919,7.919,0,0,0-5.616,13.522l2.734,2.743c-1.707,2.987-3.3,4.946-4.493,4.946Zm21.2-8.916-9.1,9.108-6.739-6.739-2.368-2.368a6.178,6.178,0,0,1,4.38-10.553,5.9,5.9,0,0,1,3.1.845,6.014,6.014,0,0,1,1.271.958l.357.366.357-.366a6.185,6.185,0,0,1,8.742,8.751Zm21.272-50.893.348-1.759-4.275-2.917-1.515.958-2.177-1.489-.052-.017h0l-2.577-1.123-1.228-5.4-1.741-.758-1.776,4.1-2.368-1.036,5.033-11.6,4.354,1.889c2.429,1.054,3.535,3.326,2.56,5.564a3.922,3.922,0,0,1-3.465,2.421l1.271,5.8,11.8-7.358.714.488-2.612,13.8Zm6.008,5.32-2.9-2.952,9.029-8.846,2.9,2.952c2.83,2.839,3.048,6.757.34,9.325C188.8,70.967,184.773,70.792,182.013,67.884Zm5.7,6.461L197.9,66.857l1.532,2.081-10.187,7.5Zm4.432,6.6,9.012-5.007L199.192,72.4l2.046-1.132,5.189,9.352-2.046,1.132L202.414,78.2,193.4,83.209Zm3.544,7.088,11.737-4.684.958,2.4L196.65,90.436Zm8.028,2.5a6.726,6.726,0,1,1-4.9,7.993A6.585,6.585,0,0,1,203.72,90.532Zm8.533,35.36a4.556,4.556,0,0,1-3.1,3.683l-1.027-1.977a2.851,2.851,0,0,0,1.863-2.116c.157-.888-.157-1.628-.932-1.768-.653-.113-1.027.226-1.689,1.193l-.879,1.306c-1.3,1.924-2.516,2.717-4.2,2.412-2.281-.409-3.4-2.534-2.943-5.024a5.5,5.5,0,0,1,3.622-4.31l1,1.985a3.684,3.684,0,0,0-2.36,2.734c-.2,1.106.209,1.863,1.054,2.02.74.131,1.071-.218,1.829-1.306l.853-1.228c1.184-1.75,2.464-2.673,4.118-2.377C211.6,121.512,212.68,123.532,212.253,125.891Zm1.019-11.293.044,2.586-12.869.209-.017-.862,7.7-7.445-7.584.122-.044-2.586,12.878-.209v.845l-7.645,7.462,7.54-.122Z" transform="translate(-27.818 -2.119)" fill="#fff"/><path d="M135.95,0A110.36,110.36,0,0,0,27.938,132.471H38.073a100.817,100.817,0,0,1-2.464-22.221,100.337,100.337,0,0,1,200.674,0,100.814,100.814,0,0,1-2.464,22.221h10.144A110.359,110.359,0,0,0,135.95,0Z" transform="translate(-25.7)" fill="#fff"/><path d="M186.227,52.124a1.763,1.763,0,0,0-1.045-2.421L183.2,48.85l-1.437,3.317,1.985.862a1.738,1.738,0,0,0,2.482-.906Z" transform="translate(-45.876 -6.315)" fill="#fff"/><path d="M100.864,191.8a7.555,7.555,0,1,0-7.384-7.558A7.237,7.237,0,0,0,100.864,191.8Z" transform="translate(-34.463 -22.843)" fill="#fff"/><path d="M70.558,131.718a1.747,1.747,0,0,0-1.62,2.064l.192,2.159,3.6-.322-.192-2.159A1.73,1.73,0,0,0,70.558,131.718Z" transform="translate(-31.289 -17.027)" fill="#fff"/><path d="M122.055,48.487l-1.445.531,2.76,7.471,1.437-.531a3.9,3.9,0,0,0,2.6-5.242C126.557,48.418,124.476,47.591,122.055,48.487Z" transform="translate(-37.97 -6.223)" fill="#fff"/><path d="M196.4,64.136l1.019-4.475-3.805,2.577Z" transform="translate(-47.408 -7.713)" fill="#fff"/><path d="M209.155,65.98l-5.695,5.573,1.071,1.1a3.911,3.911,0,0,0,5.851.226c1.75-1.715,1.654-3.953-.157-5.8Z" transform="translate(-48.681 -8.53)" fill="#fff"/><path d="M152.3,99.285a6.1,6.1,0,1,0-6.1,6.086A6.1,6.1,0,0,0,152.3,99.285Z" transform="translate(-40.491 -12.048)" fill="#fff"/></g><path d="M230.2,157.14a96.046,96.046,0,0,1-35.151,50.58H202.1q3.513-2.926,6.792-6.2a99.663,99.663,0,0,0,25.843-44.381H230.2Zm-184.514,0H41.15a99.664,99.664,0,0,0,25.843,44.381q3.278,3.265,6.792,6.2h7.053a96.127,96.127,0,0,1-35.151-50.58Z" transform="translate(-5.32 -20.315)" fill="#fff"/><g transform="translate(0 136.825)"><path d="M265.247,157.14H0l15.664,25.294L0,207.72H265.247l-15.656-25.286ZM74.917,193.205H60.149V170.227h4.7v18.729H74.917Zm13.827.418a11.912,11.912,0,1,1,12.251-11.911A11.968,11.968,0,0,1,88.744,193.623Zm27.166-4.354a7.483,7.483,0,0,0,6.574-3.866l3.553,2.508a11.3,11.3,0,0,1-10.161,5.712,11.912,11.912,0,1,1,.035-23.814,11.4,11.4,0,0,1,10.126,5.712l-3.553,2.508a7.483,7.483,0,0,0-6.574-3.866,7.555,7.555,0,0,0,0,15.107Zm28.62,3.936-1.289-3h-9.4l-1.289,3h-5.05l10.274-23.4h1.559l10.24,23.4Zm22.952,0H152.724V170.227h4.7v18.729h10.057Zm19.365,0H170.965V170.227h15.464v4.249H175.667v4.667h7.906v4h-7.906v5.816h11.18v4.249Zm11.354.418a10,10,0,0,1-8.873-5.085l3.23-2.438c1.5,2.055,3.135,3.344,5.642,3.344,2.055,0,3.274-.975,3.274-2.542,0-1.358-.731-1.846-2.926-2.856l-2.473-1.115c-3.518-1.567-5.564-3.553-5.564-6.609,0-3.936,3.274-6.513,7.619-6.513a8.268,8.268,0,0,1,7.593,4.354l-3.2,2.473a5.162,5.162,0,0,0-4.388-2.647c-1.637,0-2.856.8-2.856,2.229,0,1.219.731,1.776,2.682,2.647l2.612,1.149c3.866,1.7,5.677,3.613,5.677,6.713C206.247,190.941,202.8,193.623,198.2,193.623Z" transform="translate(0 -157.14)" fill="#fff"/><path d="M100.864,176.69a7.556,7.556,0,1,0,7.375,7.549,7.217,7.217,0,0,0-7.375-7.549Z" transform="translate(-12.085 -159.667)" fill="#fff"/><path d="M161.721,189.527H155.6l3.065-7.767Z" transform="translate(-20.116 -160.323)" fill="#fff"/></g><path d="M154.4,113.75a7.919,7.919,0,0,0-5.616,13.522l2.734,2.743c.131-.218.253-.435.374-.662l-2.586-2.595a7.2,7.2,0,0,1,5.094-12.286,6.97,6.97,0,0,1,3.431.888c.078-.235.157-.461.235-.7h0a7.678,7.678,0,0,0-3.666-.914Z" transform="translate(-18.937 -14.706)" fill="#fff"/><g transform="translate(127.538 99.044)"><path d="M168.978,116.814a7.07,7.07,0,0,0-9.717-.253,6.991,6.991,0,0,0-1.175-.845,6.864,6.864,0,0,0-3.552-.967,7.053,7.053,0,0,0-5,12.042l9.726,9.726,9.717-9.726a7.063,7.063,0,0,0,0-9.978Zm-.618,9.36-9.1,9.108-6.739-6.739-2.368-2.368a6.178,6.178,0,0,1,4.38-10.553,5.9,5.9,0,0,1,3.1.845,6.015,6.015,0,0,1,1.271.958l.357.366.357-.366a6.185,6.185,0,0,1,8.742,8.751Z" transform="translate(-146.605 -113.879)" fill="#fff"/><path d="M169.466,116.066a7.856,7.856,0,0,0-5.6-2.316,7.946,7.946,0,0,0-4.745,1.559,6.069,6.069,0,0,0-.749-.479,3.4,3.4,0,0,0-.3-.165h0a7.678,7.678,0,0,0-3.666-.914,7.919,7.919,0,0,0-5.616,13.522l2.734,2.743,6.374,6.374,1.236,1.228,10.335-10.335a7.946,7.946,0,0,0,0-11.215Zm-10.335,19.086-6.739-6.739-2.368-2.368a6.178,6.178,0,0,1,4.38-10.553,5.9,5.9,0,0,1,3.1.845,6.016,6.016,0,0,1,1.271.958l.357.366.357-.366a6.185,6.185,0,0,1,8.742,8.751Z" transform="translate(-146.475 -113.75)" fill="#fff"/></g></g></g></svg>