<svg xmlns="http://www.w3.org/2000/svg" width="243.391" height="220.509" viewBox="0 0 243.391 220.509"><g transform="translate(0 0)"><path d="M231.874,108.019a110.2,110.2,0,0,0-220.356,0H0v56.317H25.736a110.181,110.181,0,0,0,191.986,0h25.669V108.019ZM30.149,146.729H25.838v-21.1h7.927a8.739,8.739,0,0,1,3.879.847,6.407,6.407,0,0,1,3.726,5.962,6.605,6.605,0,0,1-1.194,3.879,6.73,6.73,0,0,1-2.515,2.134l5.979,8.282H38.787l-5.471-7.452H30.149Zm135.6,58.028A104.188,104.188,0,0,1,32.6,164.336H55.352a85.774,85.774,0,0,0,66.395,31.58,82.3,82.3,0,0,0,9.358-.525l1.457,9.756,5.632-7.613,2.862-3.862,1.99-2.693-3.963-2.93-4.844-3.582-5.361-3.963,1.347,9.019a79.8,79.8,0,0,1-67.039-25.186H180.274a79.5,79.5,0,0,1-24.907,18.14q-2.261,1.054-4.565,1.956l2.176,5.513h0c1.643-.644,3.277-1.338,4.886-2.092a85.068,85.068,0,0,0,30.242-23.518h22.764a103.569,103.569,0,0,1-45.13,40.421ZM57.867,133.815v3.675H50.609v5.335H60.873v3.9H46.29v-21.1H60.484v3.9H50.609v4.285Zm16.3,9.3a6.869,6.869,0,0,0,6.038-3.548l3.26,2.3a10.366,10.366,0,0,1-9.333,5.242,10.937,10.937,0,1,1,.034-21.866,10.466,10.466,0,0,1,9.3,5.242l-3.26,2.3a6.869,6.869,0,0,0-6.038-3.548,6.937,6.937,0,0,0,0,13.872Zm10.442-17.488h4.8L94.079,134l4.632-8.376h4.768l-7.258,12.788v8.316H91.9v-8.282Zm30.911,17.488a6.873,6.873,0,0,0,6.047-3.548l3.26,2.3a10.366,10.366,0,0,1-9.333,5.242,10.937,10.937,0,1,1,.025-21.866,10.47,10.47,0,0,1,9.307,5.242l-3.26,2.3a6.873,6.873,0,0,0-6.047-3.548,6.937,6.937,0,0,0,0,13.872Zm26.533-.288v3.9H128.5v-21.1h4.311v17.2Zm1.177,3.9,9.434-21.485h1.44l9.4,21.485h-4.641l-1.177-2.752H149.05l-1.177,2.752Zm39.481-6.208c0,3.65-2.879,6.208-6.936,6.208h-9.4v-21.1h7.478c3.9,0,6.682,2.431,6.682,5.886a4.978,4.978,0,0,1-1.567,3.8,5.292,5.292,0,0,1,3.743,5.208Zm17.064,2.3v3.9h-13.55v-21.1h4.311v17.2Zm17.776,3.9H202.97v-21.1h14.2v3.9h-9.883v4.285h7.258v3.675h-7.258v5.335h10.264v3.9Zm-10.23-38.711a85.256,85.256,0,0,0-8.028-33.943A86.884,86.884,0,0,0,191.91,61.22l7.486-4.057-10.755-3.2-3.218-.957-2.922-.872-1.457,4.895-1.736,5.826-1.838,6.174,9.172-4.963A80.35,80.35,0,0,1,201.4,108.019H42.039a79.146,79.146,0,0,1,4.776-25.025,82.85,82.85,0,0,1,3.879-8.96l-5.132-2.989a88.576,88.576,0,0,0-4.319,9.917,85.471,85.471,0,0,0-5.149,27.058H17.446a104.27,104.27,0,0,1,208.492,0Z" transform="translate(0 0)" fill="#fff"/><path d="M184.557,48.06l-3.769,4.582a80.682,80.682,0,0,0-36.331-16.463,78.584,78.584,0,0,0-13.77-1.211,80.173,80.173,0,0,0-58.646,25.77l7.537,5.191-7.131,1.313L65.783,68.47l-3.531.652-.864-4.692-.915-4.954L59.05,51.795l8.062,5.547a85.8,85.8,0,0,1,92.91-23.094C165.587,36.272,170.863,38.829,184.557,48.06Z" transform="translate(-9.042 -4.446)" fill="#fff"/><g transform="translate(30.149 129.335)"><path d="M42.409,155.836a2.9,2.9,0,0,1-3.193,3.04H35.6V152.83h3.616A2.924,2.924,0,0,1,42.409,155.836Z" transform="translate(-35.6 -152.737)" fill="#fff"/><path d="M183.4,164.531H177.78l2.812-7.131Z" transform="translate(-57.372 -153.437)" fill="#fff"/><path d="M204.343,157.547H201.37V152.72h2.973c1.753,0,2.744.9,2.744,2.4S206.1,157.547,204.343,157.547Z" transform="translate(-60.984 -152.72)" fill="#fff"/><path d="M209.3,165.269c0,1.66-1.118,2.651-3.006,2.651h-4.92v-5.31h4.92C208.179,162.61,209.3,163.635,209.3,165.269Z" transform="translate(-60.984 -154.234)" fill="#fff"/></g><g transform="translate(79.945 69.893)"><path d="M103.826,83.07,94.4,86.161,95.628,90.7l4.768-1.524v19.072h5.149V83.07Z" transform="translate(-94.4 -82.613)" fill="#fff"/><path d="M131.575,86.078a8.516,8.516,0,0,0-7.4-3.548,8.628,8.628,0,0,0-7.436,3.548c-1.719,2.363-2.558,5.454-2.558,9.307,0,7.436,3.362,13.237,9.993,13.237s9.959-5.8,9.959-13.237C134.132,91.532,133.294,88.441,131.575,86.078Zm-7.4,17.776c-3.125,0-4.692-2.82-4.692-8.435s1.448-8.122,4.692-8.122,4.658,2.786,4.658,8.122c0,5.615-1.567,8.435-4.658,8.435Zm7.4-17.776a8.516,8.516,0,0,0-7.4-3.548,8.628,8.628,0,0,0-7.436,3.548c-1.719,2.363-2.558,5.454-2.558,9.307,0,7.436,3.362,13.237,9.993,13.237s9.959-5.8,9.959-13.237C134.132,91.532,133.294,88.441,131.575,86.078Zm-7.4,17.776c-3.125,0-4.692-2.82-4.692-8.435s1.448-8.122,4.692-8.122,4.658,2.786,4.658,8.122c0,5.615-1.567,8.435-4.658,8.435Zm7.4-17.776a8.516,8.516,0,0,0-7.4-3.548,8.628,8.628,0,0,0-7.436,3.548c-1.719,2.363-2.558,5.454-2.558,9.307,0,7.436,3.362,13.237,9.993,13.237s9.959-5.8,9.959-13.237C134.132,91.532,133.294,88.441,131.575,86.078Zm-7.4,17.776c-3.125,0-4.692-2.82-4.692-8.435s1.448-8.122,4.692-8.122,4.658,2.786,4.658,8.122c0,5.615-1.567,8.435-4.658,8.435Zm7.4-17.776a8.516,8.516,0,0,0-7.4-3.548,8.628,8.628,0,0,0-7.436,3.548c-1.719,2.363-2.558,5.454-2.558,9.307,0,7.436,3.362,13.237,9.993,13.237s9.959-5.8,9.959-13.237C134.132,91.532,133.294,88.441,131.575,86.078Zm-7.4,17.776c-3.125,0-4.692-2.82-4.692-8.435s1.448-8.122,4.692-8.122,4.658,2.786,4.658,8.122c0,5.615-1.567,8.435-4.658,8.435Z" transform="translate(-97.429 -82.53)" fill="#fff"/><path d="M160.185,86.078a8.516,8.516,0,0,0-7.4-3.548,8.644,8.644,0,0,0-7.444,3.548c-1.711,2.363-2.549,5.454-2.549,9.307,0,7.436,3.354,13.237,9.993,13.237s9.951-5.8,9.951-13.237c0-3.853-.838-6.944-2.549-9.307Zm-7.4,17.776c-3.133,0-4.692-2.82-4.692-8.435s1.448-8.122,4.692-8.122,4.649,2.786,4.649,8.122C157.432,101.034,155.874,103.854,152.783,103.854Z" transform="translate(-101.81 -82.53)" fill="#fff"/><path d="M193.443,96.038a6.279,6.279,0,1,0,0,12.551,6.28,6.28,0,1,0,0-12.551Zm.034,8.96a2.715,2.715,0,0,1,0-5.42,2.721,2.721,0,0,1,0,5.42ZM177.919,82.53a6.279,6.279,0,1,0,6.479,6.258A6.349,6.349,0,0,0,177.919,82.53Zm.034,9a2.733,2.733,0,0,1,0-5.454,2.533,2.533,0,0,1,2.481,2.71A2.563,2.563,0,0,1,177.953,91.532Zm-.034-9a6.279,6.279,0,1,0,6.479,6.258A6.349,6.349,0,0,0,177.919,82.53Zm.034,9a2.733,2.733,0,0,1,0-5.454,2.533,2.533,0,0,1,2.481,2.71A2.563,2.563,0,0,1,177.953,91.532Zm-.034-9a6.279,6.279,0,1,0,6.479,6.258A6.349,6.349,0,0,0,177.919,82.53Zm.034,9a2.733,2.733,0,0,1,0-5.454,2.533,2.533,0,0,1,2.481,2.71A2.563,2.563,0,0,1,177.953,91.532Zm-.034-9a6.279,6.279,0,1,0,6.479,6.258A6.349,6.349,0,0,0,177.919,82.53Zm.034,9a2.733,2.733,0,0,1,0-5.454,2.533,2.533,0,0,1,2.481,2.71A2.563,2.563,0,0,1,177.953,91.532Zm-.034-9a6.279,6.279,0,1,0,6.479,6.258A6.349,6.349,0,0,0,177.919,82.53Zm.034,9a2.733,2.733,0,0,1,0-5.454,2.533,2.533,0,0,1,2.481,2.71A2.563,2.563,0,0,1,177.953,91.532Zm-.034-9a6.279,6.279,0,1,0,6.479,6.258A6.349,6.349,0,0,0,177.919,82.53Zm.034,9a2.733,2.733,0,0,1,0-5.454,2.533,2.533,0,0,1,2.481,2.71A2.563,2.563,0,0,1,177.953,91.532Zm12.9-8.545-14.465,25.178h4.124l14.5-25.178h-4.158Zm-6.453,5.8a6.508,6.508,0,1,0-6.479,6.292A6.336,6.336,0,0,0,184.4,88.788Zm-9,0a2.526,2.526,0,1,1,5.039,0,2.563,2.563,0,0,1-2.481,2.744A2.5,2.5,0,0,1,175.4,88.788Zm2.524-6.258a6.279,6.279,0,1,0,6.479,6.258A6.349,6.349,0,0,0,177.919,82.53Zm.034,9a2.733,2.733,0,0,1,0-5.454,2.533,2.533,0,0,1,2.481,2.71A2.563,2.563,0,0,1,177.953,91.532Zm-.034-9a6.279,6.279,0,1,0,6.479,6.258A6.349,6.349,0,0,0,177.919,82.53Zm.034,9a2.733,2.733,0,0,1,0-5.454,2.533,2.533,0,0,1,2.481,2.71A2.563,2.563,0,0,1,177.953,91.532Zm-.034-9a6.279,6.279,0,1,0,6.479,6.258A6.349,6.349,0,0,0,177.919,82.53Zm.034,9a2.733,2.733,0,0,1,0-5.454,2.533,2.533,0,0,1,2.481,2.71A2.563,2.563,0,0,1,177.953,91.532Zm-.034-9a6.279,6.279,0,1,0,6.479,6.258A6.349,6.349,0,0,0,177.919,82.53Zm.034,9a2.733,2.733,0,0,1,0-5.454,2.533,2.533,0,0,1,2.481,2.71A2.563,2.563,0,0,1,177.953,91.532Zm-.034-9a6.279,6.279,0,1,0,6.479,6.258A6.349,6.349,0,0,0,177.919,82.53Zm.034,9a2.733,2.733,0,0,1,0-5.454,2.533,2.533,0,0,1,2.481,2.71A2.563,2.563,0,0,1,177.953,91.532Zm-.034-9a6.279,6.279,0,1,0,6.479,6.258A6.349,6.349,0,0,0,177.919,82.53Zm.034,9a2.733,2.733,0,0,1,0-5.454,2.533,2.533,0,0,1,2.481,2.71A2.563,2.563,0,0,1,177.953,91.532Zm-.034-9a6.279,6.279,0,1,0,6.479,6.258A6.349,6.349,0,0,0,177.919,82.53Zm.034,9a2.733,2.733,0,0,1,0-5.454,2.533,2.533,0,0,1,2.481,2.71A2.563,2.563,0,0,1,177.953,91.532Z" transform="translate(-106.189 -82.53)" fill="#fff"/></g></g></svg>