<svg xmlns="http://www.w3.org/2000/svg" width="229.704" height="220.509" viewBox="0 0 229.704 220.509"><g transform="translate(0)"><g transform="translate(0 0)"><g transform="translate(1.422)"><path d="M222.219,110.255c0,3.991-10.167,7.366-10.6,11.24a2.939,2.939,0,0,0,.067.964h-4.7a95.8,95.8,0,1,0-190.057,0H12.243a2.939,2.939,0,0,0,.067-.964c-.432-3.874-10.6-7.249-10.6-11.24s10.168-7.366,10.6-11.232c.441-3.957-8.729-9.494-7.856-13.3.873-3.866,11.539-4.9,12.828-8.6,1.314-3.733-6.377-11.19-4.672-14.723,1.713-3.558,12.337-2.178,14.432-5.5,2.1-3.342-3.733-12.329-1.28-15.4s12.512.624,15.3-2.162-.923-12.836,2.162-15.3c3.068-2.453,12.055,3.384,15.388,1.28,3.325-2.087,1.945-12.711,5.5-14.432,3.533-1.7,10.982,5.986,14.723,4.681,3.691-1.3,4.722-11.955,8.588-12.836,3.808-.865,9.353,8.3,13.3,7.856C104.6,10.167,107.974,0,111.965,0S119.33,10.167,123.2,10.6c3.957.441,9.494-8.721,13.3-7.856,3.866.881,4.905,11.539,8.6,12.836,3.733,1.305,11.19-6.385,14.723-4.681,3.558,1.721,2.178,12.346,5.5,14.432,3.334,2.1,12.321-3.733,15.388-1.28,3.084,2.461-.624,12.512,2.162,15.3s12.836-.914,15.3,2.162-3.384,12.055-1.28,15.4c2.1,3.317,12.72,1.945,14.432,5.5,1.7,3.525-5.986,10.982-4.681,14.715,1.3,3.691,11.955,4.73,12.836,8.6.865,3.808-8.3,9.344-7.856,13.3.432,3.866,10.6,7.249,10.6,11.232Z" transform="translate(-1.71 0)" fill="#fff"/><path d="M115.739,22.39A91.651,91.651,0,0,0,24.9,126.235H35.953l18.789-18.573.191-.183,3.7-3.375,9.96-9.087c-2.4-2.552-2.9-6.385-.707-8.937a5.909,5.909,0,0,1,4.331-2.029,7.136,7.136,0,0,1,6.194-9.619,7.112,7.112,0,0,1,7.1-9.76A7.166,7.166,0,0,1,97.175,57.7l1.23,1.056.266.224.249.216,2.893,2.5A7.152,7.152,0,0,1,96.7,74.283a7.213,7.213,0,0,1-1.538,6.21,7.135,7.135,0,0,1-5.894,2.453,7.1,7.1,0,0,1-7.283,8.671A6.075,6.075,0,0,1,80.83,97.2c-2.369,2.76-6.692,2.669-9.61.175L70.8,97l-10.093,9.2.116.116L40.684,126.235H90.042l12.221-11.149a1.283,1.283,0,0,1,.557-.316l22.3-7.075s18.024-7.549,25.165-10.907a3.828,3.828,0,0,0,1.871-4.689,3.233,3.233,0,0,0-1.422-1.929,3.1,3.1,0,0,0-2.752-.108l-18.672,6.277a1.483,1.483,0,0,1-.948-2.81l18.681-6.268c2.145-.723,3.176-1.821,2.7-4.988a3.091,3.091,0,0,0-3.384-2.536l-18.04,3.724a1.477,1.477,0,1,1-.59-2.885l18.024-3.741c2.112-.441,2.369-2.461,2.045-3.974s-1.713-3.783-4.007-3.783l-20.9,2.685a1.476,1.476,0,1,1-.382-2.926l21.1-2.727c1.555-.2,1.405-2.361,1.006-4.115a4.282,4.282,0,0,0-4.115-3.708l-27.185-1.172-5.562.366a9.409,9.409,0,0,1-5.986-1.571c-.1-.067-.183-.133-.274-.2s-.183-.141-.274-.216a7.528,7.528,0,0,1-1.6-1.8,4.991,4.991,0,0,1-.84-3.567,3.516,3.516,0,0,1,2.669-2.669c5.6-1.23,8-1.97,13.011-5.113h.008a7.385,7.385,0,0,1,5.562-1.305c2.877.333,4.14,2.07,5.179,3.525l1.854,2.6h.008l6.692.308a7.744,7.744,0,0,1,3.508.815,5.754,5.754,0,0,1,2.27,2.461l2.469,4.78a7.667,7.667,0,0,1,5.487,5.795,8.229,8.229,0,0,1-.748,5.753,7.941,7.941,0,0,1,3.941,5.171,6.393,6.393,0,0,1-1.264,5.3,6.945,6.945,0,0,1,3.109,3.774,6.811,6.811,0,0,1-.906,6.027,6.638,6.638,0,0,1,3.359,3.907,6.773,6.773,0,0,1-.291,4.913l13.119,8.405.083-.133,33.5,21.8h5.171A91.651,91.651,0,0,0,115.739,22.39Zm61.537,55.834-5.986,5.919-6-6.069h.008a4.3,4.3,0,0,1,6.1-6.069,4.3,4.3,0,1,1,5.878,6.219Z" transform="translate(-5.484 -3.776)" fill="#fff"/><path d="M167.211,114.01l13.252,8.5-.108.166,29.214,19.013H153.02l-6.468-4.148-12.994-3.974c-1.721-.524-2.378,2.361-.881,2.827l12.62,3.866,2.236,1.43H108.7l9.586-8.746,22.164-7.033s18.032-7.549,25.373-10.991a6.776,6.776,0,0,0,1.388-.906Z" transform="translate(-19.753 -19.227)" fill="#fff"/><path d="M190.607,217.765c-2.785,2.785.915,12.836-2.162,15.3s-12.055-3.384-15.4-1.28c-3.317,2.1-1.937,12.72-5.5,14.432-3.533,1.7-10.991-5.986-14.723-4.672-3.691,1.289-4.73,11.955-8.6,12.836-3.808.865-9.344-8.3-13.3-7.865-3.866.432-7.249,10.6-11.232,10.6s-7.366-10.167-11.24-10.6c-3.949-.432-9.494,8.729-13.3,7.865-3.866-.881-4.9-11.548-8.588-12.836-3.741-1.314-11.19,6.377-14.723,4.672-3.558-1.713-2.178-12.337-5.5-14.432s-12.321,3.733-15.388,1.28c-3.084-2.461.615-12.512-2.162-15.3a3.136,3.136,0,0,0-1.214-.715h6.925a95.777,95.777,0,0,0,130.39,0h6.925a3.136,3.136,0,0,0-1.214.715Z" transform="translate(-9.446 -36.604)" fill="#fff"/><path d="M122.377,238.507A91.253,91.253,0,0,1,63.45,217.05H181.3a91.269,91.269,0,0,1-58.927,21.457Z" transform="translate(-12.122 -36.604)" fill="#fff"/><path d="M57.358,170.771a7.218,7.218,0,1,0,7.05,7.216,6.893,6.893,0,0,0-7.05-7.216ZM32.882,182.859V184.9h1.2C33.672,184.231,33.265,183.549,32.882,182.859Zm24.475-12.088a7.218,7.218,0,1,0,7.05,7.216,6.893,6.893,0,0,0-7.05-7.216Zm0,0a7.218,7.218,0,1,0,7.05,7.216,6.893,6.893,0,0,0-7.05-7.216Zm0,0a7.218,7.218,0,1,0,7.05,7.216,6.893,6.893,0,0,0-7.05-7.216ZM32.882,182.859V184.9h1.2C33.672,184.231,33.265,183.549,32.882,182.859Zm24.475-12.088a7.218,7.218,0,1,0,7.05,7.216,6.893,6.893,0,0,0-7.05-7.216Zm0,0a7.218,7.218,0,1,0,7.05,7.216,6.893,6.893,0,0,0-7.05-7.216Zm0,0a7.218,7.218,0,1,0,7.05,7.216,6.893,6.893,0,0,0-7.05-7.216ZM32.882,182.859V184.9h1.2C33.672,184.231,33.265,183.549,32.882,182.859Zm24.475-12.088a7.218,7.218,0,1,0,7.05,7.216,6.893,6.893,0,0,0-7.05-7.216Zm73.658,4.223-2.926,7.416h5.853l-2.926-7.416Zm0,0-2.926,7.416h5.853l-2.926-7.416Zm-73.658-4.223a7.218,7.218,0,1,0,7.05,7.216,6.893,6.893,0,0,0-7.05-7.216Zm0,0a7.218,7.218,0,1,0,7.05,7.216,6.893,6.893,0,0,0-7.05-7.216ZM32.882,182.859V184.9h1.2C33.672,184.231,33.265,183.549,32.882,182.859Zm24.475-12.088a7.218,7.218,0,1,0,7.05,7.216,6.893,6.893,0,0,0-7.05-7.216Zm73.658,4.223-2.926,7.416h5.853l-2.926-7.416Zm0,0-2.926,7.416h5.853l-2.926-7.416Zm-73.658-4.223a7.218,7.218,0,1,0,7.05,7.216,6.893,6.893,0,0,0-7.05-7.216Zm0,0a7.218,7.218,0,1,0,7.05,7.216,6.893,6.893,0,0,0-7.05-7.216ZM32.882,182.859V184.9h1.2C33.672,184.231,33.265,183.549,32.882,182.859Zm161.159-3.508h.624V178.1Q194.365,178.727,194.041,179.351Zm-63.025-4.356-2.926,7.416h5.853l-2.926-7.416Zm-73.658-4.223a7.218,7.218,0,1,0,7.05,7.216,6.893,6.893,0,0,0-7.05-7.216ZM32.882,182.859V184.9h1.2C33.672,184.231,33.265,183.549,32.882,182.859Zm24.475-12.088a7.218,7.218,0,1,0,7.05,7.216,6.893,6.893,0,0,0-7.05-7.216ZM32.882,182.859V184.9h1.2C33.672,184.231,33.265,183.549,32.882,182.859Zm24.475-12.088a7.218,7.218,0,1,0,7.05,7.216,6.893,6.893,0,0,0-7.05-7.216ZM32.882,182.859V184.9h1.2C33.672,184.231,33.265,183.549,32.882,182.859Zm24.475-12.088a7.218,7.218,0,1,0,7.05,7.216,6.893,6.893,0,0,0-7.05-7.216ZM32.882,182.859V184.9h1.2C33.672,184.231,33.265,183.549,32.882,182.859ZM4.949,161.36a2.1,2.1,0,0,0,.05.648A3.381,3.381,0,0,0,6.3,163.846Zm52.409,9.411a7.218,7.218,0,1,0,7.05,7.216,6.893,6.893,0,0,0-7.05-7.216ZM32.882,182.859V184.9h1.2C33.672,184.231,33.265,183.549,32.882,182.859Zm24.475-12.088a7.218,7.218,0,1,0,7.05,7.216,6.893,6.893,0,0,0-7.05-7.216ZM32.882,182.859V184.9h1.2C33.672,184.231,33.265,183.549,32.882,182.859Zm24.475-12.088a7.218,7.218,0,1,0,7.05,7.216,6.893,6.893,0,0,0-7.05-7.216ZM32.882,182.859V184.9h1.2C33.672,184.231,33.265,183.549,32.882,182.859Zm0,0V184.9h1.2C33.672,184.231,33.265,183.549,32.882,182.859Zm24.475-12.088a7.218,7.218,0,1,0,7.05,7.216,6.893,6.893,0,0,0-7.05-7.216Zm0,0a7.218,7.218,0,1,0,7.05,7.216,6.893,6.893,0,0,0-7.05-7.216Zm73.658,4.223-2.926,7.416h5.853l-2.926-7.416Zm0,0-2.926,7.416h5.853l-2.926-7.416Zm-73.658-4.223a7.218,7.218,0,1,0,7.05,7.216,6.893,6.893,0,0,0-7.05-7.216ZM32.882,182.859V184.9h1.2C33.672,184.231,33.265,183.549,32.882,182.859Zm24.475-12.088a7.218,7.218,0,1,0,7.05,7.216,6.893,6.893,0,0,0-7.05-7.216Zm0,0a7.218,7.218,0,1,0,7.05,7.216,6.893,6.893,0,0,0-7.05-7.216Zm73.658,4.223-2.926,7.416h5.853l-2.926-7.416Zm0,0-2.926,7.416h5.853l-2.926-7.416Zm-73.658-4.223a7.218,7.218,0,1,0,7.05,7.216,6.893,6.893,0,0,0-7.05-7.216ZM32.882,182.859V184.9h1.2C33.672,184.231,33.265,183.549,32.882,182.859Zm24.475-12.088a7.218,7.218,0,1,0,7.05,7.216,6.893,6.893,0,0,0-7.05-7.216Zm0,0a7.218,7.218,0,1,0,7.05,7.216,6.893,6.893,0,0,0-7.05-7.216Zm0,0a7.218,7.218,0,1,0,7.05,7.216,6.893,6.893,0,0,0-7.05-7.216ZM32.882,182.859V184.9h1.2C33.672,184.231,33.265,183.549,32.882,182.859Zm24.475-12.088a7.218,7.218,0,1,0,7.05,7.216,6.893,6.893,0,0,0-7.05-7.216Zm0,0a7.218,7.218,0,1,0,7.05,7.216,6.893,6.893,0,0,0-7.05-7.216Zm0,0a7.218,7.218,0,1,0,7.05,7.216,6.893,6.893,0,0,0-7.05-7.216Z" transform="translate(-2.255 -27.212)" fill="#fff"/><path d="M82.137,100.057a4.74,4.74,0,0,1,2.61,1.214l2.045,1.754c1.879,1.613,2.153,3.982.989,5.337s-3.567,1.463-5.437-.158l-2.053-1.746c-1.879-1.621-2.245-4.107-.964-5.354a3.447,3.447,0,0,1,2.81-1.048Z" transform="translate(-14.672 -16.871)" fill="#fff"/><path d="M89.018,88.459a4.178,4.178,0,0,1,2.926,1.064L95.286,92.4a4.225,4.225,0,1,1-5.5,6.418l-3.35-2.876a4.115,4.115,0,0,1-.457-5.953,4.535,4.535,0,0,1,3.034-1.53Z" transform="translate(-15.742 -14.917)" fill="#fff"/><path d="M99.314,77.763l4.647,3.991a4.227,4.227,0,1,1-5.5,6.418c-1.546-1.33-3.1-2.652-4.647-3.982a4.11,4.11,0,0,1-.449-5.961A4.448,4.448,0,0,1,96.4,76.7a4.132,4.132,0,0,1,2.918,1.064Z" transform="translate(-16.985 -12.934)" fill="#fff"/><path d="M107.39,77.752l-4.639-3.991A4.116,4.116,0,0,1,102.3,67.8a4.469,4.469,0,0,1,3.026-1.521,4.157,4.157,0,0,1,2.926,1.056l4.647,3.991a4.233,4.233,0,1,1-5.512,6.426Z" transform="translate(-18.493 -11.176)" fill="#fff"/><path d="M134.293,57.8a1.481,1.481,0,0,0-.931-2.652,1.507,1.507,0,0,0-.914.333l-3.9,3.084-5.254.333c-2.827.175-4.747-1.106-5.437-2.419-.8-1.5-.532-1.629.648-1.92a38.9,38.9,0,0,0,13.26-5.354,5.253,5.253,0,0,1,2.935-.9,4.883,4.883,0,0,1,3.833,2.336L144.6,59.2l-11.448-.5,1.139-.9Z" transform="translate(-21.22 -8.147)" fill="#fff"/><path d="M158.235,57.749l1.638,3.143-5.919-.258L150.57,55.87l4.39.2C156.622,56.136,157.661,56.618,158.235,57.749Z" transform="translate(-26.814 -9.422)" fill="#fff"/></g><path d="M199.709,182.747h.624V181.5Q200.033,182.124,199.709,182.747ZM38.55,186.255V188.3h1.2C39.34,187.627,38.932,186.945,38.55,186.255Z" transform="translate(-6.501 -30.609)" fill="#fff"/><g transform="translate(0 126.616)"><path d="M57.358,170.771a7.218,7.218,0,1,0,7.05,7.216,6.893,6.893,0,0,0-7.05-7.216ZM32.882,182.859V184.9h1.2C33.672,184.231,33.265,183.549,32.882,182.859Zm24.475-12.088a7.218,7.218,0,1,0,7.05,7.216,6.893,6.893,0,0,0-7.05-7.216Zm0,0a7.218,7.218,0,1,0,7.05,7.216,6.893,6.893,0,0,0-7.05-7.216Zm0,0a7.218,7.218,0,1,0,7.05,7.216,6.893,6.893,0,0,0-7.05-7.216ZM32.882,182.859V184.9h1.2C33.672,184.231,33.265,183.549,32.882,182.859Zm24.475-12.088a7.218,7.218,0,1,0,7.05,7.216,6.893,6.893,0,0,0-7.05-7.216Zm0,0a7.218,7.218,0,1,0,7.05,7.216,6.893,6.893,0,0,0-7.05-7.216Zm0,0a7.218,7.218,0,1,0,7.05,7.216,6.893,6.893,0,0,0-7.05-7.216ZM32.882,182.859V184.9h1.2C33.672,184.231,33.265,183.549,32.882,182.859Zm24.475-12.088a7.218,7.218,0,1,0,7.05,7.216,6.893,6.893,0,0,0-7.05-7.216Zm73.658,4.223-2.926,7.416h5.853l-2.926-7.416Zm0,0-2.926,7.416h5.853l-2.926-7.416Zm-73.658-4.223a7.218,7.218,0,1,0,7.05,7.216,6.893,6.893,0,0,0-7.05-7.216Zm0,0a7.218,7.218,0,1,0,7.05,7.216,6.893,6.893,0,0,0-7.05-7.216ZM32.882,182.859V184.9h1.2C33.672,184.231,33.265,183.549,32.882,182.859Zm24.475-12.088a7.218,7.218,0,1,0,7.05,7.216,6.893,6.893,0,0,0-7.05-7.216Zm73.658,4.223-2.926,7.416h5.853l-2.926-7.416Zm0,0-2.926,7.416h5.853l-2.926-7.416Zm-73.658-4.223a7.218,7.218,0,1,0,7.05,7.216,6.893,6.893,0,0,0-7.05-7.216Zm0,0a7.218,7.218,0,1,0,7.05,7.216,6.893,6.893,0,0,0-7.05-7.216ZM32.882,182.859V184.9h1.2C33.672,184.231,33.265,183.549,32.882,182.859Zm161.159-3.508h.624V178.1Q194.365,178.727,194.041,179.351Zm-63.025-4.356-2.926,7.416h5.853l-2.926-7.416Zm-73.658-4.223a7.218,7.218,0,1,0,7.05,7.216,6.893,6.893,0,0,0-7.05-7.216ZM32.882,182.859V184.9h1.2C33.672,184.231,33.265,183.549,32.882,182.859Zm24.475-12.088a7.218,7.218,0,1,0,7.05,7.216,6.893,6.893,0,0,0-7.05-7.216ZM32.882,182.859V184.9h1.2C33.672,184.231,33.265,183.549,32.882,182.859Zm24.475-12.088a7.218,7.218,0,1,0,7.05,7.216,6.893,6.893,0,0,0-7.05-7.216ZM32.882,182.859V184.9h1.2C33.672,184.231,33.265,183.549,32.882,182.859Zm24.475-12.088a7.218,7.218,0,1,0,7.05,7.216,6.893,6.893,0,0,0-7.05-7.216ZM32.882,182.859V184.9h1.2C33.672,184.231,33.265,183.549,32.882,182.859ZM4.949,161.36a2.1,2.1,0,0,0,.05.648A3.381,3.381,0,0,0,6.3,163.846Zm52.409,9.411a7.218,7.218,0,1,0,7.05,7.216,6.893,6.893,0,0,0-7.05-7.216ZM32.882,182.859V184.9h1.2C33.672,184.231,33.265,183.549,32.882,182.859Zm24.475-12.088a7.218,7.218,0,1,0,7.05,7.216,6.893,6.893,0,0,0-7.05-7.216ZM32.882,182.859V184.9h1.2C33.672,184.231,33.265,183.549,32.882,182.859Zm24.475-12.088a7.218,7.218,0,1,0,7.05,7.216,6.893,6.893,0,0,0-7.05-7.216ZM32.882,182.859V184.9h1.2C33.672,184.231,33.265,183.549,32.882,182.859Zm0,0V184.9h1.2C33.672,184.231,33.265,183.549,32.882,182.859Zm24.475-12.088a7.218,7.218,0,1,0,7.05,7.216,6.893,6.893,0,0,0-7.05-7.216Zm0,0a7.218,7.218,0,1,0,7.05,7.216,6.893,6.893,0,0,0-7.05-7.216Zm73.658,4.223-2.926,7.416h5.853l-2.926-7.416Zm0,0-2.926,7.416h5.853l-2.926-7.416Zm-73.658-4.223a7.218,7.218,0,1,0,7.05,7.216,6.893,6.893,0,0,0-7.05-7.216ZM32.882,182.859V184.9h1.2C33.672,184.231,33.265,183.549,32.882,182.859Zm24.475-12.088a7.218,7.218,0,1,0,7.05,7.216,6.893,6.893,0,0,0-7.05-7.216Zm0,0a7.218,7.218,0,1,0,7.05,7.216,6.893,6.893,0,0,0-7.05-7.216Zm73.658,4.223-2.926,7.416h5.853l-2.926-7.416Zm0,0-2.926,7.416h5.853l-2.926-7.416Zm-73.658-4.223a7.218,7.218,0,1,0,7.05,7.216,6.893,6.893,0,0,0-7.05-7.216ZM32.882,182.859V184.9h1.2C33.672,184.231,33.265,183.549,32.882,182.859Zm24.475-12.088a7.218,7.218,0,1,0,7.05,7.216,6.893,6.893,0,0,0-7.05-7.216Zm0,0a7.218,7.218,0,1,0,7.05,7.216,6.893,6.893,0,0,0-7.05-7.216Zm0,0a7.218,7.218,0,1,0,7.05,7.216,6.893,6.893,0,0,0-7.05-7.216ZM32.882,182.859V184.9h1.2C33.672,184.231,33.265,183.549,32.882,182.859Zm24.475-12.088a7.218,7.218,0,1,0,7.05,7.216,6.893,6.893,0,0,0-7.05-7.216Zm0,0a7.218,7.218,0,1,0,7.05,7.216,6.893,6.893,0,0,0-7.05-7.216Zm0,0a7.218,7.218,0,1,0,7.05,7.216,6.893,6.893,0,0,0-7.05-7.216Z" transform="translate(-0.834 -153.828)" fill="#fff"/><path d="M229.7,152.3H0l4.115,7.532,1.355,2.486,8.1,14.823L0,201.974H229.7l-13.568-24.833ZM42.723,187.425H27.56v-21.94H42.324v4.057H32.049V174H39.6v3.824H32.049v3.508c.382.69.79,1.372,1.2,2.045h9.477Zm36.006,6.917a15.754,15.754,0,0,1-3.924.432,17.337,17.337,0,0,1-14.624-7.515,12.577,12.577,0,0,1-3.691.565,11.373,11.373,0,1,1,11.7-11.365,11.136,11.136,0,0,1-4.282,8.846c2.951,3.849,6.576,5.645,11.764,5.645.432,0,1.463-.033,3.059-.133v3.525ZM90.4,178.355c0,5.819-3.982,9.469-9.3,9.469s-9.311-3.65-9.311-9.469V165.485h4.489v13.2c0,3.192,2,4.988,4.822,4.988s4.822-1.8,4.822-4.988v-13.2H90.4v12.869Zm9.353,9.07H95.265v-21.94h4.489Zm14.466,0h-4.489V169.542h-7.017v-4.057H121.27v4.057h-7.05Zm21.682,0-1.23-2.852h-8.979l-1.23,2.852h-4.822l9.81-22.339h1.5l9.768,22.339H135.9Zm17.592,0h-9.777v-21.94H151.5c4.057,0,6.942,2.527,6.942,6.119a5.216,5.216,0,0,1-1.621,3.957,5.5,5.5,0,0,1,3.882,5.42C160.7,184.773,157.717,187.425,153.494,187.425Zm24.966,0H164.368v-21.94h4.489v17.891h9.6Zm18.5,0H181.793v-21.94H196.55v4.057H186.282V174h7.549v3.824h-7.549v5.553h10.675v4.049Z" transform="translate(0 -152.3)" fill="#fff"/><path d="M184.023,175.294c0,1.563-1.031,2.527-2.86,2.527H178.07V172.8h3.093C182.992,172.8,184.023,173.731,184.023,175.294Z" transform="translate(-30.03 -155.757)" fill="#fff"/><path d="M186.317,186.04c0,1.729-1.172,2.76-3.126,2.76H178.07v-5.52h5.121C185.145,183.28,186.317,184.344,186.317,186.04Z" transform="translate(-30.03 -157.525)" fill="#fff"/><path d="M4.949,161.36a2.1,2.1,0,0,0,.05.648A3.381,3.381,0,0,0,6.3,163.846Z" transform="translate(-0.834 -153.828)" fill="#fff"/></g><path d="M232.4,182.747h.624V181.5Q232.724,182.124,232.4,182.747Z" transform="translate(-39.192 -30.609)" fill="#fff"/><path d="M64.89,120.65l-3.7,3.375,3.558-3.525Z" transform="translate(-10.319 -20.321)" fill="#fff"/></g></g></svg>