{
	"nodes":[{
		"name":"Sphere",
		"mesh":0
	},
	{
		"name":"Queue tomate",
		"translation":[0.0,
		5.77161169052124,
		0.0],
		"rotation":[0.0,
		0.0,
		0.0,
		-1.0],
		"scale":[1.0,
		1.0,
		1.0],
		"children":[2,
		3]
	},
	{
		"name":"Cylinder",
		"translation":[0.0,
		0.5518353581428528,
		0.0],
		"rotation":[0.0,
		0.0,
		0.0,
		-1.0],
		"scale":[1.0,
		1.0,
		1.0],
		"mesh":1
	},
	{
		"name":"Extrude",
		"translation":[0.0,
		-0.5518353581428528,
		0.0],
		"rotation":[0.0,
		0.0,
		0.0,
		-1.0],
		"scale":[1.0,
		1.0,
		1.0],
		"mesh":2
	}],
	"scenes":[{
		"nodes":[0,
		1]
	}],
	"asset":{
		"generator":"Created using the official Cinema 4D glTF Exporter 1.000x284978",
		"version":"2.0"
	},
	"meshes":[{
		"name":"Sphere",
		"primitives":[{
			"attributes":{
				"POSITION":1,
				"NORMAL":2,
				"TEXCOORD_0":3
			},
			"indices":0
		}]
	},
	{
		"name":"Cylinder",
		"primitives":[{
			"attributes":{
				"POSITION":5,
				"NORMAL":6,
				"TEXCOORD_0":7
			},
			"indices":4
		}]
	},
	{
		"name":"Extrude",
		"primitives":[{
			"attributes":{
				"POSITION":9,
				"NORMAL":10,
				"TEXCOORD_0":11
			},
			"indices":8
		}]
	}],
	"accessors":[{
		"bufferView":0,
		"type":"SCALAR",
		"componentType":5123,
		"byteOffset":0,
		"count":672,
		"min":[0],
		"max":[150]
	},
	{
		"bufferView":1,
		"type":"VEC3",
		"componentType":5126,
		"byteOffset":0,
		"count":151,
		"min":[-6.0,
		-6.0,
		-6.0],
		"max":[6.0,
		5.151407241821289,
		6.0]
	},
	{
		"bufferView":1,
		"type":"VEC3",
		"componentType":5126,
		"byteOffset":12,
		"count":151,
		"min":[-0.9999999403953552,
		-1.0,
		-0.9999999403953552],
		"max":[0.9999999403953552,
		0.9999999403953552,
		0.9999999403953552]
	},
	{
		"bufferView":1,
		"type":"VEC2",
		"componentType":5126,
		"byteOffset":24,
		"count":151,
		"min":[0.0,
		0.0],
		"max":[1.0,
		1.0]
	},
	{
		"bufferView":2,
		"type":"SCALAR",
		"componentType":5123,
		"byteOffset":0,
		"count":1632,
		"min":[0],
		"max":[382]
	},
	{
		"bufferView":3,
		"type":"VEC3",
		"componentType":5126,
		"byteOffset":0,
		"count":383,
		"min":[-1.3085992336273194,
		-1.109359622001648,
		-0.9850146770477295],
		"max":[0.9850146770477295,
		1.5747110843658448,
		0.9850146770477295]
	},
	{
		"bufferView":3,
		"type":"VEC3",
		"componentType":5126,
		"byteOffset":12,
		"count":383,
		"min":[-0.999963104724884,
		-1.0,
		-0.9999305605888367],
		"max":[0.9972214698791504,
		0.9960041642189026,
		0.9999889135360718]
	},
	{
		"bufferView":3,
		"type":"VEC2",
		"componentType":5126,
		"byteOffset":24,
		"count":383,
		"min":[0.0,
		-0.024763818830251695],
		"max":[1.0,
		1.0]
	},
	{
		"bufferView":4,
		"type":"SCALAR",
		"componentType":5123,
		"byteOffset":0,
		"count":588,
		"min":[0],
		"max":[215]
	},
	{
		"bufferView":5,
		"type":"VEC3",
		"componentType":5126,
		"byteOffset":0,
		"count":216,
		"min":[-3.748577117919922,
		-0.30000001192092898,
		-3.6681551933288576],
		"max":[3.2008345127105715,
		1.1876630783081055,
		3.6600637435913088]
	},
	{
		"bufferView":5,
		"type":"VEC3",
		"componentType":5126,
		"byteOffset":12,
		"count":216,
		"min":[-0.9925311803817749,
		-0.9992328882217407,
		-0.9607133865356445],
		"max":[0.8254358768463135,
		0.9984630346298218,
		0.9696556925773621]
	},
	{
		"bufferView":5,
		"type":"VEC2",
		"componentType":5126,
		"byteOffset":24,
		"count":216,
		"min":[0.0,
		0.0],
		"max":[1.0,
		1.0]
	}],
	"bufferViews":[{
		"buffer":0,
		"byteOffset":0,
		"byteLength":1344,
		"target":34963
	},
	{
		"buffer":0,
		"byteOffset":1344,
		"byteLength":4832,
		"target":34962,
		"byteStride":32
	},
	{
		"buffer":1,
		"byteOffset":0,
		"byteLength":3264,
		"target":34963
	},
	{
		"buffer":1,
		"byteOffset":3264,
		"byteLength":12256,
		"target":34962,
		"byteStride":32
	},
	{
		"buffer":2,
		"byteOffset":0,
		"byteLength":1176,
		"target":34963
	},
	{
		"buffer":2,
		"byteOffset":1176,
		"byteLength":6912,
		"target":34962,
		"byteStride":32
	}],
	"buffers":[{
		"uri":"data:application/octet-stream;base64,",
		"byteLength":6176
	},
	{
		"uri":"data:application/octet-stream;base64,",
		"byteLength":15520
	},
	{
		"uri":"data:application/octet-stream;base64,",
		"byteLength":8088
	}]
}