{
	"accessors":[{
		"bufferView":0,
		"byteOffset":0,
		"type":"SCALAR",
		"componentType":5123,
		"count":3444,
		"min":[0],
		"max":[1368]
	},
	{
		"bufferView":1,
		"byteOffset":0,
		"type":"VEC3",
		"componentType":5126,
		"count":1369,
		"min":[-20.8282413482666,
		-12.120768547058106,
		-29.160057067871095],
		"max":[20.8282413482666,
		35.2402229309082,
		29.160057067871095]
	},
	{
		"bufferView":1,
		"byteOffset":12,
		"type":"VEC3",
		"componentType":5126,
		"count":1369,
		"min":[-1.0,
		-0.9999999403953552,
		-1.0],
		"max":[1.0,
		1.0,
		1.0]
	},
	{
		"bufferView":1,
		"byteOffset":24,
		"type":"VEC2",
		"componentType":5126,
		"count":1369,
		"min":[0.0006532494444400072,
		0.0006532494444400072],
		"max":[0.9980506896972656,
		0.9615364074707031]
	}],
	"asset":{
		"version":"2.0",
		"generator":"Created using the official Cinema 4D glTF Exporter 1.000x284978"
	},
	"textures":[{
		"sampler":0,
		"source":0
	}],
	"scenes":[{
		"nodes":[0]
	}],
	"nodes":[{
		"name":"Panier.1",
		"translation":[0.0,
		0.0,
		0.0],
		"rotation":[0.0,
		0.0,
		0.0,
		-1.0],
		"scale":[1.0,
		1.0,
		1.0],
		"mesh":0
	}],
	"samplers":[{
		"magFilter":9729,
		"minFilter":9729,
		"wrapS":10497,
		"wrapT":10497
	}],
	"meshes":[{
		"name":"Panier.1",
		"primitives":[{
			"attributes":{
				"POSITION":1,
				"NORMAL":2,
				"TEXCOORD_0":3
			},
			"indices":0,
			"material":0
		}]
	}],
	"bufferViews":[{
		"buffer":0,
		"byteOffset":0,
		"byteLength":6888,
		"target":34963
	},
	{
		"buffer":0,
		"byteOffset":6888,
		"byteLength":43808,
		"target":34962,
		"byteStride":32
	}],
	"buffers":[{
		"uri":"data:application/octet-stream;base64,",
		"byteLength":50696
	}],
	"images":[{
		"uri":"data:image/jpeg;base64,"
	}],
	"materials":[{
		"pbrMetallicRoughness":{
			"baseColorTexture":{
				"index":0
			},
			"baseColorFactor":[0.8,
			0.8,
			0.8,
			1.0],
			"metallicFactor":0.0,
			"roughnessFactor":0.5
		},
		"emissiveFactor":[0.0,
		0.0,
		0.0],
		"alphaMode":"OPAQUE",
		"doubleSided":false,
		"name":"Panier"
	}]
}